<svg width="3780" height="720" xmlns="http://www.w3.org/2000/svg" xmlns:xlink="http://www.w3.org/1999/xlink" overflow="hidden"><g><rect x="0" y="0" width="3780" height="719.905" fill="#FFFFFF"/><path d="M87.6681 29.4557 561.639 29.4557 561.639 148.375 87.6681 148.375Z" fill="#D1D1D1" fill-rule="evenodd"/><path d="M561.639 29.4557 771.899 29.4557 771.899 148.375 561.639 148.375Z" fill="#D1D1D1" fill-rule="evenodd"/><path d="M771.899 29.4557 982.16 29.4557 982.16 148.375 771.899 148.375Z" fill="#D1D1D1" fill-rule="evenodd"/><path d="M982.16 29.4557 1192.42 29.4557 1192.42 148.375 982.16 148.375Z" fill="#D1D1D1" fill-rule="evenodd"/><path d="M1192.42 29.4557 1402.68 29.4557 1402.68 148.375 1192.42 148.375Z" fill="#D1D1D1" fill-rule="evenodd"/><path d="M1402.68 29.4557 1612.94 29.4557 1612.94 148.375 1402.68 148.375Z" fill="#D1D1D1" fill-rule="evenodd"/><path d="M1612.94 29.4557 1823.2 29.4557 1823.2 148.375 1612.94 148.375Z" fill="#D1D1D1" fill-rule="evenodd"/><path d="M1823.2 29.4557 2033.46 29.4557 2033.46 148.375 1823.2 148.375Z" fill="#D1D1D1" fill-rule="evenodd"/><path d="M2033.46 29.4557 2243.72 29.4557 2243.72 148.375 2033.46 148.375Z" fill="#D1D1D1" fill-rule="evenodd"/><path d="M2243.72 29.4557 2624.04 29.4557 2624.04 148.375 2243.72 148.375Z" fill="#D1D1D1" fill-rule="evenodd"/><path d="M2624.04 29.4557 2921.37 29.4557 2921.37 148.375 2624.04 148.375Z" fill="#D1D1D1" fill-rule="evenodd"/><path d="M2921.37 29.4557 3097.05 29.4557 3097.05 148.375 2921.37 148.375Z" fill="#D1D1D1" fill-rule="evenodd"/><path d="M3097.05 29.4557 3281.88 29.4557 3281.88 148.375 3097.05 148.375Z" fill="#D1D1D1" fill-rule="evenodd"/><path d="M3281.88 29.4557 3464.3 29.4557 3464.3 148.375 3281.88 148.375Z" fill="#D1D1D1" fill-rule="evenodd"/><path d="M3464.3 29.4557 3692.33 29.4557 3692.33 148.375 3464.3 148.375Z" fill="#D1D1D1" fill-rule="evenodd"/><path d="M87.6681 148.375 561.639 148.375 561.639 228.009 87.6681 228.009Z" fill="#F2F2F2" fill-rule="evenodd"/><path d="M87.6681 228.009 561.639 228.009 561.639 307.643 87.6681 307.643Z" fill="#F2F2F2" fill-rule="evenodd"/><path d="M87.6681 307.643 561.639 307.643 561.639 387.277 87.6681 387.277Z" fill="#F2F2F2" fill-rule="evenodd"/><path d="M87.6681 387.277 561.639 387.277 561.639 466.91 87.6681 466.91Z" fill="#F2F2F2" fill-rule="evenodd"/><path d="M87.6681 466.91 561.639 466.91 561.639 546.544 87.6681 546.544Z" fill="#F2F2F2" fill-rule="evenodd"/><path d="M561.639 28.7891 561.639 547.211" stroke="#747474" stroke-width="1.33351" stroke-linejoin="round" stroke-miterlimit="10" fill="none" fill-rule="evenodd"/><path d="M771.899 28.7891 771.899 547.211" stroke="#747474" stroke-width="1.33351" stroke-linejoin="round" stroke-miterlimit="10" fill="none" fill-rule="evenodd"/><path d="M982.16 28.7891 982.16 547.211" stroke="#747474" stroke-width="1.33351" stroke-linejoin="round" stroke-miterlimit="10" fill="none" fill-rule="evenodd"/><path d="M1192.42 28.7891 1192.42 547.211" stroke="#747474" stroke-width="1.33351" stroke-linejoin="round" stroke-miterlimit="10" fill="none" fill-rule="evenodd"/><path d="M1402.68 28.7891 1402.68 547.211" stroke="#747474" stroke-width="1.33351" stroke-linejoin="round" stroke-miterlimit="10" fill="none" fill-rule="evenodd"/><path d="M1612.94 28.7891 1612.94 547.211" stroke="#747474" stroke-width="1.33351" stroke-linejoin="round" stroke-miterlimit="10" fill="none" fill-rule="evenodd"/><path d="M1823.2 28.7891 1823.2 547.211" stroke="#747474" stroke-width="1.33351" stroke-linejoin="round" stroke-miterlimit="10" fill="none" fill-rule="evenodd"/><path d="M2033.46 28.7891 2033.46 547.211" stroke="#747474" stroke-width="1.33351" stroke-linejoin="round" stroke-miterlimit="10" fill="none" fill-rule="evenodd"/><path d="M2243.72 28.7891 2243.72 547.211" stroke="#747474" stroke-width="1.33351" stroke-linejoin="round" stroke-miterlimit="10" fill="none" fill-rule="evenodd"/><path d="M2624.04 28.7891 2624.04 547.211" stroke="#747474" stroke-width="1.33351" stroke-linejoin="round" stroke-miterlimit="10" fill="none" fill-rule="evenodd"/><path d="M2921.37 28.7891 2921.37 547.211" stroke="#747474" stroke-width="1.33351" stroke-linejoin="round" stroke-miterlimit="10" fill="none" fill-rule="evenodd"/><path d="M3097.05 28.7891 3097.05 547.211" stroke="#747474" stroke-width="1.33351" stroke-linejoin="round" stroke-miterlimit="10" fill="none" fill-rule="evenodd"/><path d="M3281.88 28.7891 3281.88 547.211" stroke="#747474" stroke-width="1.33351" stroke-linejoin="round" stroke-miterlimit="10" fill="none" fill-rule="evenodd"/><path d="M3464.3 28.7891 3464.3 547.211" stroke="#747474" stroke-width="1.33351" stroke-linejoin="round" stroke-miterlimit="10" fill="none" fill-rule="evenodd"/><path d="M87.0013 148.375 3693 148.375" stroke="#747474" stroke-width="1.33351" stroke-linejoin="round" stroke-miterlimit="10" fill="none" fill-rule="evenodd"/><path d="M87.0013 228.009 3693 228.009" stroke="#747474" stroke-width="1.33351" stroke-linejoin="round" stroke-miterlimit="10" fill="none" fill-rule="evenodd"/><path d="M87.0013 307.643 3693 307.643" stroke="#747474" stroke-width="1.33351" stroke-linejoin="round" stroke-miterlimit="10" fill="none" fill-rule="evenodd"/><path d="M87.0013 387.277 3693 387.277" stroke="#747474" stroke-width="1.33351" stroke-linejoin="round" stroke-miterlimit="10" fill="none" fill-rule="evenodd"/><path d="M87.0013 466.91 3693 466.91" stroke="#747474" stroke-width="1.33351" stroke-linejoin="round" stroke-miterlimit="10" fill="none" fill-rule="evenodd"/><path d="M87.6681 28.7891 87.6681 547.211" stroke="#747474" stroke-width="1.33351" stroke-linejoin="round" stroke-miterlimit="10" fill="none" fill-rule="evenodd"/><path d="M3692.33 28.7891 3692.33 547.211" stroke="#747474" stroke-width="1.33351" stroke-linejoin="round" stroke-miterlimit="10" fill="none" fill-rule="evenodd"/><path d="M87.0013 29.4557 3693 29.4557" stroke="#747474" stroke-width="1.33351" stroke-linejoin="round" stroke-miterlimit="10" fill="none" fill-rule="evenodd"/><path d="M87.0013 546.544 3693 546.544" stroke="#747474" stroke-width="1.33351" stroke-linejoin="round" stroke-miterlimit="10" fill="none" fill-rule="evenodd"/><g><text font-family="NanumSquare_ac ExtraBold,NanumSquare_ac ExtraBold_MSFontService,sans-serif" font-weight="800" font-size="48" transform="matrix(1 0 0 0.999868 3483.09 104)">Average</text></g><g><text font-family="NanumSquare_ac ExtraBold,NanumSquare_ac ExtraBold_MSFontService,sans-serif" font-weight="800" font-size="48" transform="matrix(1 0 0 0.999868 3304.58 104)">γ</text></g><text font-family="NanumSquare_ac ExtraBold,NanumSquare_ac ExtraBold_MSFontService,sans-serif" font-weight="800" font-size="48" transform="matrix(1 0 0 0.999868 3330.25 104)">-</text><g><text font-family="NanumSquare_ac ExtraBold,NanumSquare_ac ExtraBold_MSFontService,sans-serif" font-weight="800" font-size="48" transform="matrix(1 0 0 0.999868 3350.75 104)">GTP</text></g><text font-family="NanumSquare_ac ExtraBold,NanumSquare_ac ExtraBold_MSFontService,sans-serif" font-weight="800" font-size="48" transform="matrix(1 0 0 0.999868 3147.23 104)">ALT</text><text font-family="NanumSquare_ac ExtraBold,NanumSquare_ac ExtraBold_MSFontService,sans-serif" font-weight="800" font-size="48" transform="matrix(1 0 0 0.999868 2963.95 104)">AST</text><text font-family="NanumSquare_ac ExtraBold,NanumSquare_ac ExtraBold_MSFontService,sans-serif" font-weight="800" font-size="48" transform="matrix(1 0 0 0.999868 2696.11 75)">Serum</text><g><text font-family="NanumSquare_ac ExtraBold,NanumSquare_ac ExtraBold_MSFontService,sans-serif" font-weight="800" font-size="48" transform="matrix(1 0 0 0.999868 2651.27 133)">Creatinine</text></g><text font-family="NanumSquare_ac ExtraBold,NanumSquare_ac ExtraBold_MSFontService,sans-serif" font-weight="800" font-size="48" transform="matrix(1 0 0 0.999868 2279.06 104)">Urine Protein</text><text font-family="NanumSquare_ac ExtraBold,NanumSquare_ac ExtraBold_MSFontService,sans-serif" font-weight="800" font-size="48" transform="matrix(1 0 0 0.999868 2106.67 104)">Hb</text><text font-family="NanumSquare_ac ExtraBold,NanumSquare_ac ExtraBold_MSFontService,sans-serif" font-weight="800" font-size="48" transform="matrix(1 0 0 0.999868 1859.53 104)">LDL</text><text font-family="NanumSquare_ac ExtraBold,NanumSquare_ac ExtraBold_MSFontService,sans-serif" font-weight="800" font-size="48" transform="matrix(1 0 0 0.999868 1944.96 104)">-</text><text font-family="NanumSquare_ac ExtraBold,NanumSquare_ac ExtraBold_MSFontService,sans-serif" font-weight="800" font-size="48" transform="matrix(1 0 0 0.999868 1965.46 104)">C</text><text font-family="NanumSquare_ac ExtraBold,NanumSquare_ac ExtraBold_MSFontService,sans-serif" font-weight="800" font-size="48" transform="matrix(1 0 0 0.999868 1645.52 104)">HDL</text><text font-family="NanumSquare_ac ExtraBold,NanumSquare_ac ExtraBold_MSFontService,sans-serif" font-weight="800" font-size="48" transform="matrix(1 0 0 0.999868 1738.45 104)">-</text><text font-family="NanumSquare_ac ExtraBold,NanumSquare_ac ExtraBold_MSFontService,sans-serif" font-weight="800" font-size="48" transform="matrix(1 0 0 0.999868 1758.95 104)">C</text><text font-family="NanumSquare_ac ExtraBold,NanumSquare_ac ExtraBold_MSFontService,sans-serif" font-weight="800" font-size="48" transform="matrix(1 0 0 0.999868 1478.02 104)">TG</text><text font-family="NanumSquare_ac ExtraBold,NanumSquare_ac ExtraBold_MSFontService,sans-serif" font-weight="800" font-size="48" transform="matrix(1 0 0 0.999868 1257.79 104)">T</text><text font-family="NanumSquare_ac ExtraBold,NanumSquare_ac ExtraBold_MSFontService,sans-serif" font-weight="800" font-size="48" transform="matrix(1 0 0 0.999868 1285.13 104)">-</text><text font-family="NanumSquare_ac ExtraBold,NanumSquare_ac ExtraBold_MSFontService,sans-serif" font-weight="800" font-size="48" transform="matrix(1 0 0 0.999868 1305.63 104)">C</text><text font-family="NanumSquare_ac ExtraBold,NanumSquare_ac ExtraBold_MSFontService,sans-serif" font-weight="800" font-size="48" transform="matrix(1 0 0 0.999868 1041.03 104)">FBG</text><text font-family="NanumSquare_ac ExtraBold,NanumSquare_ac ExtraBold_MSFontService,sans-serif" font-weight="800" font-size="48" transform="matrix(1 0 0 0.999868 845.942 104)">BP</text><text font-family="NanumSquare_ac ExtraBold,NanumSquare_ac ExtraBold_MSFontService,sans-serif" font-weight="800" font-size="48" transform="matrix(1 0 0 0.999868 622.93 104)">BMI</text><text font-family="NanumSquare_ac ExtraBold,NanumSquare_ac ExtraBold_MSFontService,sans-serif" font-weight="800" font-size="48" transform="matrix(1 0 0 0.999868 198.804 104)">LLM model</text><text font-family="NanumSquare_ac ExtraBold,NanumSquare_ac ExtraBold_MSFontService,sans-serif" font-weight="800" font-size="48" transform="matrix(1 0 0 0.999868 3510.39 203)">0.824</text><text font-family="NanumSquare_ac,NanumSquare_ac_MSFontService,sans-serif" font-weight="400" font-size="48" transform="matrix(1 0 0 0.999868 3323.92 203)">0.86</text><text font-family="NanumSquare_ac,NanumSquare_ac_MSFontService,sans-serif" font-weight="400" font-size="48" transform="matrix(1 0 0 0.999868 3140.29 203)">0.93</text><text font-family="NanumSquare_ac,NanumSquare_ac_MSFontService,sans-serif" font-weight="400" font-size="48" transform="matrix(1 0 0 0.999868 2960.04 203)">0.97</text><text fill="#0070C0" font-family="NanumSquare_ac,NanumSquare_ac_MSFontService,sans-serif" font-weight="400" font-size="48" transform="matrix(1 0 0 0.999868 2723.53 203)">1.00</text><text fill="#0070C0" font-family="NanumSquare_ac,NanumSquare_ac_MSFontService,sans-serif" font-weight="400" font-size="48" transform="matrix(1 0 0 0.999868 2384.71 203)">1.00</text><text font-family="NanumSquare_ac,NanumSquare_ac_MSFontService,sans-serif" font-weight="400" font-size="48" transform="matrix(1 0 0 0.999868 2089.42 203)">0.82</text><text fill="#FF0000" font-family="NanumSquare_ac,NanumSquare_ac_MSFontService,sans-serif" font-weight="400" font-size="48" transform="matrix(1 0 0 0.999868 1879.16 203)">0.48</text><text font-family="NanumSquare_ac,NanumSquare_ac_MSFontService,sans-serif" font-weight="400" font-size="48" transform="matrix(1 0 0 0.999868 1668.9 203)">0.64</text><text font-family="NanumSquare_ac,NanumSquare_ac_MSFontService,sans-serif" font-weight="400" font-size="48" transform="matrix(1 0 0 0.999868 1458.64 203)">0.92</text><text font-family="NanumSquare_ac,NanumSquare_ac_MSFontService,sans-serif" font-weight="400" font-size="48" transform="matrix(1 0 0 0.999868 1248.38 203)">0.80</text><text font-family="NanumSquare_ac,NanumSquare_ac_MSFontService,sans-serif" font-weight="400" font-size="48" transform="matrix(1 0 0 0.999868 1038.12 203)">0.66</text><text font-family="NanumSquare_ac,NanumSquare_ac_MSFontService,sans-serif" font-weight="400" font-size="48" transform="matrix(1 0 0 0.999868 827.856 203)">0.67</text><text font-family="NanumSquare_ac,NanumSquare_ac_MSFontService,sans-serif" font-weight="400" font-size="48" transform="matrix(1 0 0 0.999868 617.596 203)">0.96</text><text font-family="NanumSquare_ac Bold,NanumSquare_ac Bold_MSFontService,sans-serif" font-weight="700" font-size="48" transform="matrix(1 0 0 0.999868 247.81 203)">gpt</text><text font-family="NanumSquare_ac Bold,NanumSquare_ac Bold_MSFontService,sans-serif" font-weight="700" font-size="48" transform="matrix(1 0 0 0.999868 323.82 203)">-</text><text font-family="NanumSquare_ac Bold,NanumSquare_ac Bold_MSFontService,sans-serif" font-weight="700" font-size="48" transform="matrix(1 0 0 0.999868 343.99 203)">4o</text><text font-family="NanumSquare_ac ExtraBold,NanumSquare_ac ExtraBold_MSFontService,sans-serif" font-weight="800" font-size="48" transform="matrix(1 0 0 0.999868 3510.39 283)">0.838</text><text font-family="NanumSquare_ac,NanumSquare_ac_MSFontService,sans-serif" font-weight="400" font-size="48" transform="matrix(1 0 0 0.999868 3323.92 283)">0.89</text><text font-family="NanumSquare_ac,NanumSquare_ac_MSFontService,sans-serif" font-weight="400" font-size="48" transform="matrix(1 0 0 0.999868 3140.29 283)">0.90</text><text fill="#0070C0" font-family="NanumSquare_ac,NanumSquare_ac_MSFontService,sans-serif" font-weight="400" font-size="48" transform="matrix(1 0 0 0.999868 2960.04 283)">1.00</text><text fill="#0070C0" font-family="NanumSquare_ac,NanumSquare_ac_MSFontService,sans-serif" font-weight="400" font-size="48" transform="matrix(1 0 0 0.999868 2723.53 283)">1.00</text><text fill="#0070C0" font-family="NanumSquare_ac,NanumSquare_ac_MSFontService,sans-serif" font-weight="400" font-size="48" transform="matrix(1 0 0 0.999868 2384.71 283)">1.00</text><text font-family="NanumSquare_ac,NanumSquare_ac_MSFontService,sans-serif" font-weight="400" font-size="48" transform="matrix(1 0 0 0.999868 2089.42 283)">0.85</text><text font-family="NanumSquare_ac,NanumSquare_ac_MSFontService,sans-serif" font-weight="400" font-size="48" transform="matrix(1 0 0 0.999868 1879.16 283)">0.59</text><text fill="#FF0000" font-family="NanumSquare_ac,NanumSquare_ac_MSFontService,sans-serif" font-weight="400" font-size="48" transform="matrix(1 0 0 0.999868 1668.9 283)">0.50</text><text font-family="NanumSquare_ac,NanumSquare_ac_MSFontService,sans-serif" font-weight="400" font-size="48" transform="matrix(1 0 0 0.999868 1458.64 283)">0.92</text><text font-family="NanumSquare_ac,NanumSquare_ac_MSFontService,sans-serif" font-weight="400" font-size="48" transform="matrix(1 0 0 0.999868 1248.38 283)">0.69</text><text font-family="NanumSquare_ac,NanumSquare_ac_MSFontService,sans-serif" font-weight="400" font-size="48" transform="matrix(1 0 0 0.999868 1038.12 283)">0.82</text><text font-family="NanumSquare_ac,NanumSquare_ac_MSFontService,sans-serif" font-weight="400" font-size="48" transform="matrix(1 0 0 0.999868 827.856 283)">0.74</text><text font-family="NanumSquare_ac,NanumSquare_ac_MSFontService,sans-serif" font-weight="400" font-size="48" transform="matrix(1 0 0 0.999868 617.596 283)">1.00</text><text font-family="NanumSquare_ac Bold,NanumSquare_ac Bold_MSFontService,sans-serif" font-weight="700" font-size="48" transform="matrix(1 0 0 0.999868 124.877 283)">claude</text><text font-family="NanumSquare_ac Bold,NanumSquare_ac Bold_MSFontService,sans-serif" font-weight="700" font-size="48" transform="matrix(1 0 0 0.999868 284.232 283)">3.5 sonnet</text><text font-family="NanumSquare_ac ExtraBold,NanumSquare_ac ExtraBold_MSFontService,sans-serif" font-weight="800" font-size="48" transform="matrix(1 0 0 0.999868 3510.39 363)">0.798</text><text font-family="NanumSquare_ac,NanumSquare_ac_MSFontService,sans-serif" font-weight="400" font-size="48" transform="matrix(1 0 0 0.999868 3323.92 363)">0.89</text><text font-family="NanumSquare_ac,NanumSquare_ac_MSFontService,sans-serif" font-weight="400" font-size="48" transform="matrix(1 0 0 0.999868 3140.29 363)">0.91</text><text font-family="NanumSquare_ac,NanumSquare_ac_MSFontService,sans-serif" font-weight="400" font-size="48" transform="matrix(1 0 0 0.999868 2960.04 363)">0.96</text><text fill="#0070C0" font-family="NanumSquare_ac,NanumSquare_ac_MSFontService,sans-serif" font-weight="400" font-size="48" transform="matrix(1 0 0 0.999868 2723.53 363)">1.00</text><text fill="#0070C0" font-family="NanumSquare_ac,NanumSquare_ac_MSFontService,sans-serif" font-weight="400" font-size="48" transform="matrix(1 0 0 0.999868 2384.71 363)">1.00</text><text font-family="NanumSquare_ac,NanumSquare_ac_MSFontService,sans-serif" font-weight="400" font-size="48" transform="matrix(1 0 0 0.999868 2089.42 363)">0.84</text><text font-family="NanumSquare_ac,NanumSquare_ac_MSFontService,sans-serif" font-weight="400" font-size="48" transform="matrix(1 0 0 0.999868 1879.16 363)">0.51</text><text font-family="NanumSquare_ac,NanumSquare_ac_MSFontService,sans-serif" font-weight="400" font-size="48" transform="matrix(1 0 0 0.999868 1668.9 363)">0.71</text><text font-family="NanumSquare_ac,NanumSquare_ac_MSFontService,sans-serif" font-weight="400" font-size="48" transform="matrix(1 0 0 0.999868 1458.64 363)">0.88</text><text fill="#FF0000" font-family="NanumSquare_ac,NanumSquare_ac_MSFontService,sans-serif" font-weight="400" font-size="48" transform="matrix(1 0 0 0.999868 1248.38 363)">0.47</text><text font-family="NanumSquare_ac,NanumSquare_ac_MSFontService,sans-serif" font-weight="400" font-size="48" transform="matrix(1 0 0 0.999868 1038.12 363)">0.70</text><text font-family="NanumSquare_ac,NanumSquare_ac_MSFontService,sans-serif" font-weight="400" font-size="48" transform="matrix(1 0 0 0.999868 827.856 363)">0.70</text><text font-family="NanumSquare_ac,NanumSquare_ac_MSFontService,sans-serif" font-weight="400" font-size="48" transform="matrix(1 0 0 0.999868 617.596 363)">0.81</text><text font-family="NanumSquare_ac Bold,NanumSquare_ac Bold_MSFontService,sans-serif" font-weight="700" font-size="48" transform="matrix(1 0 0 0.999868 161.539 363)">gemini</text><text font-family="NanumSquare_ac Bold,NanumSquare_ac Bold_MSFontService,sans-serif" font-weight="700" font-size="48" transform="matrix(1 0 0 0.999868 326.227 363)">1.5 pro</text><text font-family="NanumSquare_ac ExtraBold,NanumSquare_ac ExtraBold_MSFontService,sans-serif" font-weight="800" font-size="48" transform="matrix(1 0 0 0.999868 3510.39 442)">0.560</text><text font-family="NanumSquare_ac,NanumSquare_ac_MSFontService,sans-serif" font-weight="400" font-size="48" transform="matrix(1 0 0 0.999868 3323.92 442)">0.80</text><text font-family="NanumSquare_ac,NanumSquare_ac_MSFontService,sans-serif" font-weight="400" font-size="48" transform="matrix(1 0 0 0.999868 3140.29 442)">0.81</text><text font-family="NanumSquare_ac,NanumSquare_ac_MSFontService,sans-serif" font-weight="400" font-size="48" transform="matrix(1 0 0 0.999868 2960.04 442)">0.96</text><text fill="#0070C0" font-family="NanumSquare_ac,NanumSquare_ac_MSFontService,sans-serif" font-weight="400" font-size="48" transform="matrix(1 0 0 0.999868 2723.53 442)">0.98</text><text font-family="NanumSquare_ac,NanumSquare_ac_MSFontService,sans-serif" font-weight="400" font-size="48" transform="matrix(1 0 0 0.999868 2384.71 442)">0.90</text><text font-family="NanumSquare_ac,NanumSquare_ac_MSFontService,sans-serif" font-weight="400" font-size="48" transform="matrix(1 0 0 0.999868 2089.42 442)">0.81</text><text font-family="NanumSquare_ac,NanumSquare_ac_MSFontService,sans-serif" font-weight="400" font-size="48" transform="matrix(1 0 0 0.999868 1879.16 442)">0.21</text><text font-family="NanumSquare_ac,NanumSquare_ac_MSFontService,sans-serif" font-weight="400" font-size="48" transform="matrix(1 0 0 0.999868 1668.9 442)">0.39</text><text font-family="NanumSquare_ac,NanumSquare_ac_MSFontService,sans-serif" font-weight="400" font-size="48" transform="matrix(1 0 0 0.999868 1458.64 442)">0.26</text><text font-family="NanumSquare_ac,NanumSquare_ac_MSFontService,sans-serif" font-weight="400" font-size="48" transform="matrix(1 0 0 0.999868 1248.38 442)">0.37</text><text font-family="NanumSquare_ac,NanumSquare_ac_MSFontService,sans-serif" font-weight="400" font-size="48" transform="matrix(1 0 0 0.999868 1038.12 442)">0.25</text><text font-family="NanumSquare_ac,NanumSquare_ac_MSFontService,sans-serif" font-weight="400" font-size="48" transform="matrix(1 0 0 0.999868 827.856 442)">0.48</text><text fill="#FF0000" font-family="NanumSquare_ac,NanumSquare_ac_MSFontService,sans-serif" font-weight="400" font-size="48" transform="matrix(1 0 0 0.999868 617.596 442)">0.06</text><text font-family="NanumSquare_ac Bold,NanumSquare_ac Bold_MSFontService,sans-serif" font-weight="700" font-size="48" transform="matrix(1 0 0 0.999868 188.319 442)">EXAONE 3.0</text><text font-family="NanumSquare_ac ExtraBold,NanumSquare_ac ExtraBold_MSFontService,sans-serif" font-weight="800" font-size="48" transform="matrix(1 0 0 0.999868 3510.39 522)">0.628</text><text font-family="NanumSquare_ac,NanumSquare_ac_MSFontService,sans-serif" font-weight="400" font-size="48" transform="matrix(1 0 0 0.999868 3323.92 522)">0.68</text><text font-family="NanumSquare_ac,NanumSquare_ac_MSFontService,sans-serif" font-weight="400" font-size="48" transform="matrix(1 0 0 0.999868 3140.29 522)">0.75</text><text font-family="NanumSquare_ac,NanumSquare_ac_MSFontService,sans-serif" font-weight="400" font-size="48" transform="matrix(1 0 0 0.999868 2960.04 522)">0.88</text><text fill="#0070C0" font-family="NanumSquare_ac,NanumSquare_ac_MSFontService,sans-serif" font-weight="400" font-size="48" transform="matrix(1 0 0 0.999868 2723.53 522)">0.92</text><text font-family="NanumSquare_ac,NanumSquare_ac_MSFontService,sans-serif" font-weight="400" font-size="48" transform="matrix(1 0 0 0.999868 2384.71 522)">0.88</text><text font-family="NanumSquare_ac,NanumSquare_ac_MSFontService,sans-serif" font-weight="400" font-size="48" transform="matrix(1 0 0 0.999868 2089.42 522)">0.73</text><text font-family="NanumSquare_ac,NanumSquare_ac_MSFontService,sans-serif" font-weight="400" font-size="48" transform="matrix(1 0 0 0.999868 1879.16 522)">0.41</text><text font-family="NanumSquare_ac,NanumSquare_ac_MSFontService,sans-serif" font-weight="400" font-size="48" transform="matrix(1 0 0 0.999868 1668.9 522)">0.59</text><text font-family="NanumSquare_ac,NanumSquare_ac_MSFontService,sans-serif" font-weight="400" font-size="48" transform="matrix(1 0 0 0.999868 1458.64 522)">0.46</text><text font-family="NanumSquare_ac,NanumSquare_ac_MSFontService,sans-serif" font-weight="400" font-size="48" transform="matrix(1 0 0 0.999868 1248.38 522)">0.56</text><text font-family="NanumSquare_ac,NanumSquare_ac_MSFontService,sans-serif" font-weight="400" font-size="48" transform="matrix(1 0 0 0.999868 1038.12 522)">0.68</text><text font-family="NanumSquare_ac,NanumSquare_ac_MSFontService,sans-serif" font-weight="400" font-size="48" transform="matrix(1 0 0 0.999868 827.856 522)">0.57</text><text fill="#FF0000" font-family="NanumSquare_ac,NanumSquare_ac_MSFontService,sans-serif" font-weight="400" font-size="48" transform="matrix(1 0 0 0.999868 617.596 522)">0.05</text><text font-family="NanumSquare_ac Bold,NanumSquare_ac Bold_MSFontService,sans-serif" font-weight="700" font-size="48" transform="matrix(1 0 0 0.999868 221.973 522)">llama 3.1</text><text font-family="NanumSquare_ac ExtraBold,NanumSquare_ac ExtraBold_MSFontService,sans-serif" font-weight="800" font-size="53" transform="matrix(1 0 0 0.999868 1038.39 605)">표</text><text font-family="NanumSquare_ac ExtraBold,NanumSquare_ac ExtraBold_MSFontService,sans-serif" font-weight="800" font-size="53" transform="matrix(1 0 0 0.999868 1097.57 605)">1.</text><text font-family="NanumSquare_ac ExtraBold,NanumSquare_ac ExtraBold_MSFontService,sans-serif" font-weight="800" font-size="53" transform="matrix(1 0 0 0.999868 1162.24 605)">대규모</text><text font-family="NanumSquare_ac ExtraBold,NanumSquare_ac ExtraBold_MSFontService,sans-serif" font-weight="800" font-size="53" transform="matrix(1 0 0 0.999868 1313.1 605)">언어</text><text font-family="NanumSquare_ac ExtraBold,NanumSquare_ac ExtraBold_MSFontService,sans-serif" font-weight="800" font-size="53" transform="matrix(1 0 0 0.999868 1418.11 605)">모델의</text><text font-family="NanumSquare_ac ExtraBold,NanumSquare_ac ExtraBold_MSFontService,sans-serif" font-weight="800" font-size="53" transform="matrix(1 0 0 0.999868 1568.96 605)">건강검진</text><text font-family="NanumSquare_ac ExtraBold,NanumSquare_ac ExtraBold_MSFontService,sans-serif" font-weight="800" font-size="53" transform="matrix(1 0 0 0.999868 1765.66 605)">결과</text><text font-family="NanumSquare_ac ExtraBold,NanumSquare_ac ExtraBold_MSFontService,sans-serif" font-weight="800" font-size="53" transform="matrix(1 0 0 0.999868 1870.67 605)">해석</text><text font-family="NanumSquare_ac ExtraBold,NanumSquare_ac ExtraBold_MSFontService,sans-serif" font-weight="800" font-size="53" transform="matrix(1 0 0 0.999868 1975.68 605)">정확도</text><text font-family="NanumSquare_ac ExtraBold,NanumSquare_ac ExtraBold_MSFontService,sans-serif" font-weight="800" font-size="53" transform="matrix(1 0 0 0.999868 2126.54 605)">(</text><text font-family="NanumSquare_ac ExtraBold,NanumSquare_ac ExtraBold_MSFontService,sans-serif" font-weight="800" font-size="53" transform="matrix(1 0 0 0.999868 2145.87 605)">최저</text><text font-family="NanumSquare_ac ExtraBold,NanumSquare_ac ExtraBold_MSFontService,sans-serif" font-weight="800" font-size="53" transform="matrix(1 0 0 0.999868 2237.55 605)">:</text><text font-family="NanumSquare_ac ExtraBold,NanumSquare_ac ExtraBold_MSFontService,sans-serif" font-weight="800" font-size="53" transform="matrix(1 0 0 0.999868 2272.39 605)">빨간색</text><text font-family="NanumSquare_ac ExtraBold,NanumSquare_ac ExtraBold_MSFontService,sans-serif" font-weight="800" font-size="53" transform="matrix(1 0 0 0.999868 2409.91 605)">,</text><text font-family="NanumSquare_ac ExtraBold,NanumSquare_ac ExtraBold_MSFontService,sans-serif" font-weight="800" font-size="53" transform="matrix(1 0 0 0.999868 2441.58 605)">최고</text><text font-family="NanumSquare_ac ExtraBold,NanumSquare_ac ExtraBold_MSFontService,sans-serif" font-weight="800" font-size="53" transform="matrix(1 0 0 0.999868 2533.26 605)">:</text><text font-family="NanumSquare_ac ExtraBold,NanumSquare_ac ExtraBold_MSFontService,sans-serif" font-weight="800" font-size="53" transform="matrix(1 0 0 0.999868 2568.1 605)">파란색</text><text font-family="NanumSquare_ac ExtraBold,NanumSquare_ac ExtraBold_MSFontService,sans-serif" font-weight="800" font-size="53" transform="matrix(1 0 0 0.999868 2705.61 605)">)</text><text font-family="NanumSquare_ac,NanumSquare_ac_MSFontService,sans-serif" font-weight="400" font-size="37" transform="matrix(1 0 0 0.999868 97.2693 663)">BMI</text><text font-family="NanumSquare_ac,NanumSquare_ac_MSFontService,sans-serif" font-weight="400" font-size="37" transform="matrix(1 0 0 0.999868 159.944 663)">:</text><text font-family="NanumSquare_ac,NanumSquare_ac_MSFontService,sans-serif" font-weight="400" font-size="37" transform="matrix(1 0 0 0.999868 188.035 663)">body</text><text font-family="NanumSquare_ac,NanumSquare_ac_MSFontService,sans-serif" font-weight="400" font-size="37" transform="matrix(1 0 0 0.999868 287.761 663)">mass</text><text font-family="NanumSquare_ac,NanumSquare_ac_MSFontService,sans-serif" font-weight="400" font-size="37" transform="matrix(1 0 0 0.999868 394.195 663)">index</text><text font-family="NanumSquare_ac,NanumSquare_ac_MSFontService,sans-serif" font-weight="400" font-size="37" transform="matrix(1 0 0 0.999868 485.167 663)">;</text><text font-family="NanumSquare_ac,NanumSquare_ac_MSFontService,sans-serif" font-weight="400" font-size="37" transform="matrix(1 0 0 0.999868 513.258 663)">BP</text><text font-family="NanumSquare_ac,NanumSquare_ac_MSFontService,sans-serif" font-weight="400" font-size="37" transform="matrix(1 0 0 0.999868 558.597 663)">:</text><text font-family="NanumSquare_ac,NanumSquare_ac_MSFontService,sans-serif" font-weight="400" font-size="37" transform="matrix(1 0 0 0.999868 586.687 663)">blood</text><text font-family="NanumSquare_ac,NanumSquare_ac_MSFontService,sans-serif" font-weight="400" font-size="37" transform="matrix(1 0 0 0.999868 697.249 663)">pressure</text><text font-family="NanumSquare_ac,NanumSquare_ac_MSFontService,sans-serif" font-weight="400" font-size="37" transform="matrix(1 0 0 0.999868 847.142 663)">;</text><text font-family="NanumSquare_ac,NanumSquare_ac_MSFontService,sans-serif" font-weight="400" font-size="37" transform="matrix(1 0 0 0.999868 875.232 663)">FBG</text><text font-family="NanumSquare_ac,NanumSquare_ac_MSFontService,sans-serif" font-weight="400" font-size="37" transform="matrix(1 0 0 0.999868 943.741 663)">:</text><text font-family="NanumSquare_ac,NanumSquare_ac_MSFontService,sans-serif" font-weight="400" font-size="37" transform="matrix(1 0 0 0.999868 971.832 663)">fasting</text><text font-family="NanumSquare_ac,NanumSquare_ac_MSFontService,sans-serif" font-weight="400" font-size="37" transform="matrix(1 0 0 0.999868 1107.44 663)">blood</text><text font-family="NanumSquare_ac,NanumSquare_ac_MSFontService,sans-serif" font-weight="400" font-size="37" transform="matrix(1 0 0 0.999868 1218.37 663)">glucose</text><text font-family="NanumSquare_ac,NanumSquare_ac_MSFontService,sans-serif" font-weight="400" font-size="37" transform="matrix(1 0 0 0.999868 1348.55 663)">;</text><text font-family="NanumSquare_ac,NanumSquare_ac_MSFontService,sans-serif" font-weight="400" font-size="37" transform="matrix(1 0 0 0.999868 1376.65 663)">T</text><text font-family="NanumSquare_ac,NanumSquare_ac_MSFontService,sans-serif" font-weight="400" font-size="37" transform="matrix(1 0 0 0.999868 1396.86 663)">-</text><text font-family="NanumSquare_ac,NanumSquare_ac_MSFontService,sans-serif" font-weight="400" font-size="37" transform="matrix(1 0 0 0.999868 1412.2 663)">C</text><text font-family="NanumSquare_ac,NanumSquare_ac_MSFontService,sans-serif" font-weight="400" font-size="37" transform="matrix(1 0 0 0.999868 1435.7 663)">:</text><text font-family="NanumSquare_ac,NanumSquare_ac_MSFontService,sans-serif" font-weight="400" font-size="37" transform="matrix(1 0 0 0.999868 1463.79 663)">total</text><text font-family="NanumSquare_ac,NanumSquare_ac_MSFontService,sans-serif" font-weight="400" font-size="37" transform="matrix(1 0 0 0.999868 1542.3 663)">-</text><text font-family="NanumSquare_ac,NanumSquare_ac_MSFontService,sans-serif" font-weight="400" font-size="37" transform="matrix(1 0 0 0.999868 1557.64 663)">cholesterol</text><text font-family="NanumSquare_ac,NanumSquare_ac_MSFontService,sans-serif" font-weight="400" font-size="37" transform="matrix(1 0 0 0.999868 1745.35 663)">;</text><text font-family="NanumSquare_ac,NanumSquare_ac_MSFontService,sans-serif" font-weight="400" font-size="37" transform="matrix(1 0 0 0.999868 1773.44 663)">TG</text><text font-family="NanumSquare_ac,NanumSquare_ac_MSFontService,sans-serif" font-weight="400" font-size="37" transform="matrix(1 0 0 0.999868 1818.68 663)">:</text><text font-family="NanumSquare_ac,NanumSquare_ac_MSFontService,sans-serif" font-weight="400" font-size="37" transform="matrix(1 0 0 0.999868 1846.77 663)">triglycerides</text><text font-family="NanumSquare_ac,NanumSquare_ac_MSFontService,sans-serif" font-weight="400" font-size="37" transform="matrix(1 0 0 0.999868 2056.11 663)">;</text><text font-family="NanumSquare_ac,NanumSquare_ac_MSFontService,sans-serif" font-weight="400" font-size="37" transform="matrix(1 0 0 0.999868 2084.2 663)">HDL</text><text font-family="NanumSquare_ac,NanumSquare_ac_MSFontService,sans-serif" font-weight="400" font-size="37" transform="matrix(1 0 0 0.999868 2153.05 663)">-</text><text font-family="NanumSquare_ac,NanumSquare_ac_MSFontService,sans-serif" font-weight="400" font-size="37" transform="matrix(1 0 0 0.999868 2168.38 663)">C</text><text font-family="NanumSquare_ac,NanumSquare_ac_MSFontService,sans-serif" font-weight="400" font-size="37" transform="matrix(1 0 0 0.999868 2191.89 663)">:</text><text font-family="NanumSquare_ac,NanumSquare_ac_MSFontService,sans-serif" font-weight="400" font-size="37" transform="matrix(1 0 0 0.999868 2219.98 663)">high</text><text font-family="NanumSquare_ac,NanumSquare_ac_MSFontService,sans-serif" font-weight="400" font-size="37" transform="matrix(1 0 0 0.999868 2293.65 663)">-</text><text font-family="NanumSquare_ac,NanumSquare_ac_MSFontService,sans-serif" font-weight="400" font-size="37" transform="matrix(1 0 0 0.999868 2308.99 663)">density</text><text font-family="NanumSquare_ac,NanumSquare_ac_MSFontService,sans-serif" font-weight="400" font-size="37" transform="matrix(1 0 0 0.999868 2449.93 663)">lipoprotein</text><text font-family="NanumSquare_ac,NanumSquare_ac_MSFontService,sans-serif" font-weight="400" font-size="37" transform="matrix(1 0 0 0.999868 2649.04 663)">cholesterol</text><text font-family="NanumSquare_ac,NanumSquare_ac_MSFontService,sans-serif" font-weight="400" font-size="37" transform="matrix(1 0 0 0.999868 2836.75 663)">;</text><text font-family="NanumSquare_ac,NanumSquare_ac_MSFontService,sans-serif" font-weight="400" font-size="37" transform="matrix(1 0 0 0.999868 2864.85 663)">LDL</text><text font-family="NanumSquare_ac,NanumSquare_ac_MSFontService,sans-serif" font-weight="400" font-size="37" transform="matrix(1 0 0 0.999868 2928.36 663)">-</text><text font-family="NanumSquare_ac,NanumSquare_ac_MSFontService,sans-serif" font-weight="400" font-size="37" transform="matrix(1 0 0 0.999868 2943.7 663)">C</text><text font-family="NanumSquare_ac,NanumSquare_ac_MSFontService,sans-serif" font-weight="400" font-size="37" transform="matrix(1 0 0 0.999868 2967.2 663)">:</text><text font-family="NanumSquare_ac,NanumSquare_ac_MSFontService,sans-serif" font-weight="400" font-size="37" transform="matrix(1 0 0 0.999868 2995.3 663)">low</text><text font-family="NanumSquare_ac,NanumSquare_ac_MSFontService,sans-serif" font-weight="400" font-size="37" transform="matrix(1 0 0 0.999868 3053.03 663)">-</text><text font-family="NanumSquare_ac,NanumSquare_ac_MSFontService,sans-serif" font-weight="400" font-size="37" transform="matrix(1 0 0 0.999868 3068.36 663)">density</text><text font-family="NanumSquare_ac,NanumSquare_ac_MSFontService,sans-serif" font-weight="400" font-size="37" transform="matrix(1 0 0 0.999868 3209.31 663)">lipoprotein</text><text font-family="NanumSquare_ac,NanumSquare_ac_MSFontService,sans-serif" font-weight="400" font-size="37" transform="matrix(1 0 0 0.999868 3408.43 663)">cholesterol</text><text font-family="NanumSquare_ac,NanumSquare_ac_MSFontService,sans-serif" font-weight="400" font-size="37" transform="matrix(1 0 0 0.999868 3596.14 663)">;</text><text font-family="NanumSquare_ac,NanumSquare_ac_MSFontService,sans-serif" font-weight="400" font-size="37" transform="matrix(1 0 0 0.999868 3624.24 663)">Hb</text><text font-family="NanumSquare_ac,NanumSquare_ac_MSFontService,sans-serif" font-weight="400" font-size="37" transform="matrix(1 0 0 0.999868 3671.24 663)">:</text><text font-family="NanumSquare_ac,NanumSquare_ac_MSFontService,sans-serif" font-weight="400" font-size="37" transform="matrix(1 0 0 0.999868 97.2693 704)">hemoglobin</text><text font-family="NanumSquare_ac,NanumSquare_ac_MSFontService,sans-serif" font-weight="400" font-size="37" transform="matrix(1 0 0 0.999868 296.442 704)">;</text><text font-family="NanumSquare_ac,NanumSquare_ac_MSFontService,sans-serif" font-weight="400" font-size="37" transform="matrix(1 0 0 0.999868 317.112 704)">AST</text><text font-family="NanumSquare_ac,NanumSquare_ac_MSFontService,sans-serif" font-weight="400" font-size="37" transform="matrix(1 0 0 0.999868 385.621 704)">:</text><text font-family="NanumSquare_ac,NanumSquare_ac_MSFontService,sans-serif" font-weight="400" font-size="37" transform="matrix(1 0 0 0.999868 406.29 704)">aspartate</text><text font-family="NanumSquare_ac,NanumSquare_ac_MSFontService,sans-serif" font-weight="400" font-size="37" transform="matrix(1 0 0 0.999868 579.313 704)">aminotransferase</text><text font-family="NanumSquare_ac,NanumSquare_ac_MSFontService,sans-serif" font-weight="400" font-size="37" transform="matrix(1 0 0 0.999868 879.533 704)">;</text><text font-family="NanumSquare_ac,NanumSquare_ac_MSFontService,sans-serif" font-weight="400" font-size="37" transform="matrix(1 0 0 0.999868 900.202 704)">ALT</text><text font-family="NanumSquare_ac,NanumSquare_ac_MSFontService,sans-serif" font-weight="400" font-size="37" transform="matrix(1 0 0 0.999868 963.804 704)">:</text><text font-family="NanumSquare_ac,NanumSquare_ac_MSFontService,sans-serif" font-weight="400" font-size="37" transform="matrix(1 0 0 0.999868 984.473 704)">alanine</text><text font-family="NanumSquare_ac,NanumSquare_ac_MSFontService,sans-serif" font-weight="400" font-size="37" transform="matrix(1 0 0 0.999868 1114.32 704)">aminotransferase</text><text font-family="NanumSquare_ac,NanumSquare_ac_MSFontService,sans-serif" font-weight="400" font-size="37" transform="matrix(1 0 0 0.999868 1414.54 704)">;</text><text font-family="NanumSquare_ac,NanumSquare_ac_MSFontService,sans-serif" font-weight="400" font-size="37" transform="matrix(1 0 0 0.999868 1435.21 704)">γ</text><text font-family="NanumSquare_ac,NanumSquare_ac_MSFontService,sans-serif" font-weight="400" font-size="37" transform="matrix(1 0 0 0.999868 1454.05 704)">-</text><text font-family="NanumSquare_ac,NanumSquare_ac_MSFontService,sans-serif" font-weight="400" font-size="37" transform="matrix(1 0 0 0.999868 1469.38 704)">GTP</text><text font-family="NanumSquare_ac,NanumSquare_ac_MSFontService,sans-serif" font-weight="400" font-size="37" transform="matrix(1 0 0 0.999868 1537.56 704)">:</text><text font-family="NanumSquare_ac,NanumSquare_ac_MSFontService,sans-serif" font-weight="400" font-size="37" transform="matrix(1 0 0 0.999868 1558.23 704)">γ</text><text font-family="NanumSquare_ac,NanumSquare_ac_MSFontService,sans-serif" font-weight="400" font-size="37" transform="matrix(1 0 0 0.999868 1577.07 704)">-</text><text font-family="NanumSquare_ac,NanumSquare_ac_MSFontService,sans-serif" font-weight="400" font-size="37" transform="matrix(1 0 0 0.999868 1592.4 704)">glutamyl</text><text font-family="NanumSquare_ac,NanumSquare_ac_MSFontService,sans-serif" font-weight="400" font-size="37" transform="matrix(1 0 0 0.999868 1747.92 704)">transferase</text><text font-family="NanumSquare_ac,NanumSquare_ac_MSFontService,sans-serif" font-weight="400" font-size="37" transform="matrix(1 0 0 0.999868 1943.96 704)">.</text></g></svg>