<svg width="720" height="907" xmlns="http://www.w3.org/2000/svg" xmlns:xlink="http://www.w3.org/1999/xlink" overflow="hidden"><g><rect x="0" y="0" width="720" height="906.833" fill="#FFFFFF"/><text font-family="KoreanGD16R,KoreanGD16R_MSFontService,sans-serif" font-weight="400" font-size="20" transform="matrix(1 0 0 0.999816 70.5981 44)">BP</text><path d="M173 37.993 654.039 37.9931" stroke="#262626" stroke-width="2" stroke-miterlimit="8" fill="#262626" fill-rule="evenodd"/><path d="M162 37.993C162 32.4712 166.477 27.9949 172 27.9949 177.523 27.9949 182 32.4712 182 37.993 182 43.5149 177.523 47.9912 172 47.9912 166.477 47.9912 162 43.5149 162 37.993Z" stroke="#262626" stroke-width="2" stroke-miterlimit="8" fill="#595959" fill-rule="evenodd"/><path d="M547 37.993C547 32.4712 551.477 27.9949 557 27.9949 562.523 27.9949 567 32.4712 567 37.993 567 43.5149 562.523 47.9912 557 47.9912 551.477 47.9912 547 43.5149 547 37.993Z" stroke="#262626" stroke-width="2" stroke-miterlimit="8" fill="#595959" fill-rule="evenodd"/><path d="M643 37.993C643 32.4712 647.477 27.9949 653 27.9949 658.523 27.9949 663 32.4712 663 37.993 663 43.5149 658.523 47.9912 653 47.9912 647.477 47.9912 643 43.5149 643 37.993Z" stroke="#262626" stroke-width="2" stroke-miterlimit="8" fill="#595959" fill-rule="evenodd"/><path d="M451 37.993C451 32.4712 455.477 27.9949 461 27.9949 466.523 27.9949 471 32.4712 471 37.993 471 43.5149 466.523 47.9912 461 47.9912 455.477 47.9912 451 43.5149 451 37.993Z" stroke="#262626" stroke-width="2" stroke-miterlimit="8" fill="#595959" fill-rule="evenodd"/><path d="M359 37.993C359 32.4712 363.477 27.9949 369 27.9949 374.523 27.9949 379 32.4712 379 37.993 379 43.5149 374.523 47.9912 369 47.9912 363.477 47.9912 359 43.5149 359 37.993Z" stroke="#262626" stroke-width="2" stroke-miterlimit="8" fill="#595959" fill-rule="evenodd"/><path d="M258 37.993C258 32.4712 262.477 27.9949 268 27.9949 273.523 27.9949 278 32.4712 278 37.993 278 43.5149 273.523 47.9912 268 47.9912 262.477 47.9912 258 43.5149 258 37.993Z" stroke="#262626" stroke-width="2" stroke-miterlimit="8" fill="#595959" fill-rule="evenodd"/><text font-family="KoreanGD16R,KoreanGD16R_MSFontService,sans-serif" font-weight="400" font-size="20" transform="matrix(1 0 0 0.999816 64.6817 110)">FBG</text><path d="M173 103.981 654.039 103.981" stroke="#262626" stroke-width="2" stroke-miterlimit="8" fill="#262626" fill-rule="evenodd"/><path d="M162 104.981C162 99.4589 166.477 94.9825 172 94.9825 177.523 94.9825 182 99.4589 182 104.981 182 110.503 177.523 114.979 172 114.979 166.477 114.979 162 110.503 162 104.981Z" stroke="#262626" stroke-width="2" stroke-miterlimit="8" fill="#595959" fill-rule="evenodd"/><path d="M643 104.981C643 99.4589 647.477 94.9825 653 94.9825 658.523 94.9825 663 99.4589 663 104.981 663 110.503 658.523 114.979 653 114.979 647.477 114.979 643 110.503 643 104.981Z" stroke="#262626" stroke-width="2" stroke-miterlimit="8" fill="#595959" fill-rule="evenodd"/><path d="M402 104.981C402 99.4589 406.701 94.9825 412.5 94.9825 418.299 94.9825 423 99.4589 423 104.981 423 110.503 418.299 114.979 412.5 114.979 406.701 114.979 402 110.503 402 104.981Z" stroke="#262626" stroke-width="2" stroke-miterlimit="8" fill="#595959" fill-rule="evenodd"/><text font-family="KoreanGD12R,KoreanGD12R_MSFontService,sans-serif" font-weight="400" font-size="19" transform="matrix(1 0 0 0.999816 155.213 86)">정상</text><text font-family="KoreanGD12R,KoreanGD12R_MSFontService,sans-serif" font-weight="400" font-size="19" transform="matrix(1 0 0 0.999816 628.002 86)">당뇨병</text><text font-family="KoreanGD12R,KoreanGD12R_MSFontService,sans-serif" font-weight="400" font-size="19" transform="matrix(1 0 0 0.999816 362.951 86)">공복혈당장애</text><text font-family="KoreanGD16R,KoreanGD16R_MSFontService,sans-serif" font-weight="400" font-size="20" transform="matrix(1 0 0 0.999816 65.822 177)">T</text><text font-family="KoreanGD16R,KoreanGD16R_MSFontService,sans-serif" font-weight="400" font-size="20" transform="matrix(1 0 0 0.999816 76.7087 177)">-</text><text font-family="KoreanGD16R,KoreanGD16R_MSFontService,sans-serif" font-weight="400" font-size="20" transform="matrix(1 0 0 0.999816 87.042 177)">C</text><path d="M173 170.969 654.039 170.969" stroke="#262626" stroke-width="2" stroke-miterlimit="8" fill="#262626" fill-rule="evenodd"/><path d="M162 171.968C162 166.447 166.477 161.97 172 161.97 177.523 161.97 182 166.447 182 171.968 182 177.49 177.523 181.967 172 181.967 166.477 181.967 162 177.49 162 171.968Z" stroke="#262626" stroke-width="2" stroke-miterlimit="8" fill="#595959" fill-rule="evenodd"/><path d="M643 171.968C643 166.447 647.477 161.97 653 161.97 658.523 161.97 663 166.447 663 171.968 663 177.49 658.523 181.967 653 181.967 647.477 181.967 643 177.49 643 171.968Z" stroke="#262626" stroke-width="2" stroke-miterlimit="8" fill="#595959" fill-rule="evenodd"/><path d="M402 172.468C402 166.67 406.701 161.97 412.5 161.97 418.299 161.97 423 166.67 423 172.468 423 178.266 418.299 182.966 412.5 182.966 406.701 182.966 402 178.266 402 172.468Z" stroke="#262626" stroke-width="2" stroke-miterlimit="8" fill="#595959" fill-rule="evenodd"/><text font-family="KoreanGD12R,KoreanGD12R_MSFontService,sans-serif" font-weight="400" font-size="19" transform="matrix(1 0 0 0.999816 155.213 154)">정상</text><text font-family="KoreanGD12R,KoreanGD12R_MSFontService,sans-serif" font-weight="400" font-size="19" transform="matrix(1 0 0 0.999816 636.253 154)">높음</text><text font-family="KoreanGD12R,KoreanGD12R_MSFontService,sans-serif" font-weight="400" font-size="19" transform="matrix(1 0 0 0.999816 395.951 155)">경계</text><text font-family="KoreanGD16R,KoreanGD16R_MSFontService,sans-serif" font-weight="400" font-size="20" transform="matrix(1 0 0 0.999816 70.598 244)">TG</text><path d="M173 237.956 654.039 237.956" stroke="#262626" stroke-width="2" stroke-miterlimit="8" fill="#262626" fill-rule="evenodd"/><path d="M162 238.456C162 232.658 166.477 227.958 172 227.958 177.523 227.958 182 232.658 182 238.456 182 244.254 177.523 248.954 172 248.954 166.477 248.954 162 244.254 162 238.456Z" stroke="#262626" stroke-width="2" stroke-miterlimit="8" fill="#595959" fill-rule="evenodd"/><path d="M643 238.456C643 232.658 647.477 227.958 653 227.958 658.523 227.958 663 232.658 663 238.456 663 244.254 658.523 248.954 653 248.954 647.477 248.954 643 244.254 643 238.456Z" stroke="#262626" stroke-width="2" stroke-miterlimit="8" fill="#595959" fill-rule="evenodd"/><path d="M402 237.956C402 232.434 406.701 227.958 412.5 227.958 418.299 227.958 423 232.434 423 237.956 423 243.478 418.299 247.954 412.5 247.954 406.701 247.954 402 243.478 402 237.956Z" stroke="#262626" stroke-width="2" stroke-miterlimit="8" fill="#595959" fill-rule="evenodd"/><text font-family="KoreanGD12R,KoreanGD12R_MSFontService,sans-serif" font-weight="400" font-size="19" transform="matrix(1 0 0 0.999816 155.213 220)">정상</text><text font-family="KoreanGD12R,KoreanGD12R_MSFontService,sans-serif" font-weight="400" font-size="19" transform="matrix(1 0 0 0.999816 636.253 220)">높음</text><text font-family="KoreanGD12R,KoreanGD12R_MSFontService,sans-serif" font-weight="400" font-size="19" transform="matrix(1 0 0 0.999816 395.952 220)">경계</text><text font-family="KoreanGD16R,KoreanGD16R_MSFontService,sans-serif" font-weight="400" font-size="20" transform="matrix(1 0 0 0.999816 53.4042 307)">HDL</text><text font-family="KoreanGD16R,KoreanGD16R_MSFontService,sans-serif" font-weight="400" font-size="20" transform="matrix(1 0 0 0.999816 89.1242 307)">-</text><text font-family="KoreanGD16R,KoreanGD16R_MSFontService,sans-serif" font-weight="400" font-size="20" transform="matrix(1 0 0 0.999816 99.4575 307)">C</text><path d="M173 301.945 654.039 301.945" stroke="#262626" stroke-width="2" stroke-miterlimit="8" fill="#262626" fill-rule="evenodd"/><path d="M162 301.945C162 296.423 166.477 291.946 172 291.946 177.523 291.946 182 296.423 182 301.945 182 307.466 177.523 311.943 172 311.943 166.477 311.943 162 307.466 162 301.945Z" stroke="#262626" stroke-width="2" stroke-miterlimit="8" fill="#595959" fill-rule="evenodd"/><path d="M643 301.945C643 296.423 647.477 291.946 653 291.946 658.523 291.946 663 296.423 663 301.945 663 307.466 658.523 311.943 653 311.943 647.477 311.943 643 307.466 643 301.945Z" stroke="#262626" stroke-width="2" stroke-miterlimit="8" fill="#595959" fill-rule="evenodd"/><path d="M316 301.945C316 296.423 320.477 291.946 326 291.946 331.523 291.946 336 296.423 336 301.945 336 307.466 331.523 311.943 326 311.943 320.477 311.943 316 307.466 316 301.945Z" stroke="#262626" stroke-width="2" stroke-miterlimit="8" fill="#595959" fill-rule="evenodd"/><path d="M486 301.945C486 296.423 490.477 291.946 496 291.946 501.523 291.946 506 296.423 506 301.945 506 307.466 501.523 311.943 496 311.943 490.477 311.943 486 307.466 486 301.945Z" stroke="#262626" stroke-width="2" stroke-miterlimit="8" fill="#595959" fill-rule="evenodd"/><text font-family="KoreanGD12R,KoreanGD12R_MSFontService,sans-serif" font-weight="400" font-size="19" transform="matrix(1 0 0 0.999816 155.214 283)">정상</text><text font-family="KoreanGD12R,KoreanGD12R_MSFontService,sans-serif" font-weight="400" font-size="19" transform="matrix(1 0 0 0.999816 617.003 283)">매우</text><text font-family="KoreanGD12R,KoreanGD12R_MSFontService,sans-serif" font-weight="400" font-size="19" transform="matrix(1 0 0 0.999816 655.503 283)">높음</text><text font-family="KoreanGD12R,KoreanGD12R_MSFontService,sans-serif" font-weight="400" font-size="19" transform="matrix(1 0 0 0.999816 309.587 283)">낮음</text><text font-family="KoreanGD12R,KoreanGD12R_MSFontService,sans-serif" font-weight="400" font-size="19" transform="matrix(1 0 0 0.999816 479.586 283)">높음</text><text font-family="KoreanGD16R,KoreanGD16R_MSFontService,sans-serif" font-weight="400" font-size="20" transform="matrix(1 0 0 0.999816 54.3217 374)">LDL</text><text font-family="KoreanGD16R,KoreanGD16R_MSFontService,sans-serif" font-weight="400" font-size="20" transform="matrix(1 0 0 0.999816 88.2084 374)">-</text><text font-family="KoreanGD16R,KoreanGD16R_MSFontService,sans-serif" font-weight="400" font-size="20" transform="matrix(1 0 0 0.999816 98.5417 374)">C</text><path d="M173 367.932 654.039 367.932" stroke="#262626" stroke-width="2" stroke-miterlimit="8" fill="#262626" fill-rule="evenodd"/><path d="M162 368.932C162 363.41 166.477 358.934 172 358.934 177.523 358.934 182 363.41 182 368.932 182 374.454 177.523 378.93 172 378.93 166.477 378.93 162 374.454 162 368.932Z" stroke="#262626" stroke-width="2" stroke-miterlimit="8" fill="#595959" fill-rule="evenodd"/><path d="M643 368.932C643 363.41 647.477 358.934 653 358.934 658.523 358.934 663 363.41 663 368.932 663 374.454 658.523 378.93 653 378.93 647.477 378.93 643 374.454 643 368.932Z" stroke="#262626" stroke-width="2" stroke-miterlimit="8" fill="#595959" fill-rule="evenodd"/><path d="M404 368.932C404 363.41 408.477 358.934 414 358.934 419.523 358.934 424 363.41 424 368.932 424 374.454 419.523 378.93 414 378.93 408.477 378.93 404 374.454 404 368.932Z" stroke="#262626" stroke-width="2" stroke-miterlimit="8" fill="#595959" fill-rule="evenodd"/><path d="M281 369.932C281 364.41 285.701 359.934 291.5 359.934 297.299 359.934 302 364.41 302 369.932 302 375.454 297.299 379.93 291.5 379.93 285.701 379.93 281 375.454 281 369.932Z" stroke="#262626" stroke-width="2" stroke-miterlimit="8" fill="#595959" fill-rule="evenodd"/><path d="M523 369.932C523 364.41 527.701 359.934 533.5 359.934 539.299 359.934 544 364.41 544 369.932 544 375.454 539.299 379.93 533.5 379.93 527.701 379.93 523 375.454 523 369.932Z" stroke="#262626" stroke-width="2" stroke-miterlimit="8" fill="#595959" fill-rule="evenodd"/><text font-family="KoreanGD12R,KoreanGD12R_MSFontService,sans-serif" font-weight="400" font-size="19" transform="matrix(1 0 0 0.999816 155.213 351)">정상</text><text font-family="KoreanGD12R,KoreanGD12R_MSFontService,sans-serif" font-weight="400" font-size="19" transform="matrix(1 0 0 0.999816 617.003 351)">매우</text><text font-family="KoreanGD12R,KoreanGD12R_MSFontService,sans-serif" font-weight="400" font-size="19" transform="matrix(1 0 0 0.999816 655.503 351)">높음</text><text font-family="KoreanGD12R,KoreanGD12R_MSFontService,sans-serif" font-weight="400" font-size="19" transform="matrix(1 0 0 0.999816 397.502 351)">경계</text><text font-family="KoreanGD12R,KoreanGD12R_MSFontService,sans-serif" font-weight="400" font-size="19" transform="matrix(1 0 0 0.999816 255.774 352)">정상</text><text font-family="KoreanGD12R,KoreanGD12R_MSFontService,sans-serif" font-weight="400" font-size="19" transform="matrix(1 0 0 0.999816 294.274 352)">이상</text><text font-family="KoreanGD12R,KoreanGD12R_MSFontService,sans-serif" font-weight="400" font-size="19" transform="matrix(1 0 0 0.999816 516.991 352)">높음</text><text font-family="KoreanGD16R,KoreanGD16R_MSFontService,sans-serif" font-weight="400" font-size="20" transform="matrix(1 0 0 0.999816 70.6813 438)">Hb</text><path d="M173 432.92 654.039 432.921" stroke="#262626" stroke-width="2" stroke-miterlimit="8" fill="#262626" fill-rule="evenodd"/><path d="M162 432.92C162 427.399 166.477 422.922 172 422.922 177.523 422.922 182 427.399 182 432.92 182 438.442 177.523 442.919 172 442.919 166.477 442.919 162 438.442 162 432.92Z" stroke="#262626" stroke-width="2" stroke-miterlimit="8" fill="#595959" fill-rule="evenodd"/><path d="M643 432.92C643 427.399 647.477 422.922 653 422.922 658.523 422.922 663 427.399 663 432.92 663 438.442 658.523 442.919 653 442.919 647.477 442.919 643 438.442 643 432.92Z" stroke="#262626" stroke-width="2" stroke-miterlimit="8" fill="#595959" fill-rule="evenodd"/><text font-family="KoreanGD12R,KoreanGD12R_MSFontService,sans-serif" font-weight="400" font-size="19" transform="matrix(1 0 0 0.999816 155.213 415)">정상</text><text font-family="KoreanGD12R,KoreanGD12R_MSFontService,sans-serif" font-weight="400" font-size="19" transform="matrix(1 0 0 0.999816 636.253 415)">이상</text><text font-family="KoreanGD16R,KoreanGD16R_MSFontService,sans-serif" font-weight="400" font-size="20" transform="matrix(1 0 0 0.999816 58.7679 500)">Urine</text><text font-family="KoreanGD16R,KoreanGD16R_MSFontService,sans-serif" font-weight="400" font-size="20" transform="matrix(1 0 0 0.999816 50.4479 524)">Protein</text><path d="M173 502.908 654.039 502.908" stroke="#262626" stroke-width="2" stroke-miterlimit="8" fill="#262626" fill-rule="evenodd"/><path d="M162 503.907C162 498.386 166.477 493.909 172 493.909 177.523 493.909 182 498.386 182 503.907 182 509.429 177.523 513.906 172 513.906 166.477 513.906 162 509.429 162 503.907Z" stroke="#262626" stroke-width="2" stroke-miterlimit="8" fill="#595959" fill-rule="evenodd"/><path d="M643 503.907C643 498.386 647.477 493.909 653 493.909 658.523 493.909 663 498.386 663 503.907 663 509.429 658.523 513.906 653 513.906 647.477 513.906 643 509.429 643 503.907Z" stroke="#262626" stroke-width="2" stroke-miterlimit="8" fill="#595959" fill-rule="evenodd"/><text font-family="KoreanGD12R,KoreanGD12R_MSFontService,sans-serif" font-weight="400" font-size="19" transform="matrix(1 0 0 0.999816 155.213 487)">정상</text><text font-family="KoreanGD12R,KoreanGD12R_MSFontService,sans-serif" font-weight="400" font-size="19" transform="matrix(1 0 0 0.999816 636.253 487)">이상</text><text font-family="KoreanGD16R,KoreanGD16R_MSFontService,sans-serif" font-weight="400" font-size="20" transform="matrix(1 0 0 0.999816 53.2645 567)">Serum</text><text font-family="KoreanGD16R,KoreanGD16R_MSFontService,sans-serif" font-weight="400" font-size="20" transform="matrix(1 0 0 0.999816 36.0645 591)">Creatinine</text><text font-family="KoreanGD12R,KoreanGD12R_MSFontService,sans-serif" font-weight="400" font-size="19" transform="matrix(1 0 0 0.999816 155.213 553)">정상</text><text font-family="KoreanGD12R,KoreanGD12R_MSFontService,sans-serif" font-weight="400" font-size="19" transform="matrix(1 0 0 0.999816 636.253 553)">이상</text><path d="M173 568.895 654.039 568.896" stroke="#262626" stroke-width="2" stroke-miterlimit="8" fill="#262626" fill-rule="evenodd"/><path d="M162 569.895C162 564.373 166.477 559.897 172 559.897 177.523 559.897 182 564.373 182 569.895 182 575.417 177.523 579.893 172 579.893 166.477 579.893 162 575.417 162 569.895Z" stroke="#262626" stroke-width="2" stroke-miterlimit="8" fill="#595959" fill-rule="evenodd"/><path d="M643 569.895C643 564.373 647.477 559.897 653 559.897 658.523 559.897 663 564.373 663 569.895 663 575.417 658.523 579.893 653 579.893 647.477 579.893 643 575.417 643 569.895Z" stroke="#262626" stroke-width="2" stroke-miterlimit="8" fill="#595959" fill-rule="evenodd"/><text font-family="KoreanGD16R,KoreanGD16R_MSFontService,sans-serif" font-weight="400" font-size="20" transform="matrix(1 0 0 0.999816 64.2139 642)">AST</text><text font-family="KoreanGD12R,KoreanGD12R_MSFontService,sans-serif" font-weight="400" font-size="19" transform="matrix(1 0 0 0.999816 155.213 618)">정상</text><text font-family="KoreanGD12R,KoreanGD12R_MSFontService,sans-serif" font-weight="400" font-size="19" transform="matrix(1 0 0 0.999816 636.253 618)">높음</text><path d="M173 635.883 654.039 635.883" stroke="#262626" stroke-width="2" stroke-miterlimit="8" fill="#262626" fill-rule="evenodd"/><path d="M162 636.383C162 630.585 166.477 625.885 172 625.885 177.523 625.885 182 630.585 182 636.383 182 642.181 177.523 646.881 172 646.881 166.477 646.881 162 642.181 162 636.383Z" stroke="#262626" stroke-width="2" stroke-miterlimit="8" fill="#595959" fill-rule="evenodd"/><path d="M643 636.383C643 630.585 647.477 625.885 653 625.885 658.523 625.885 663 630.585 663 636.383 663 642.181 658.523 646.881 653 646.881 647.477 646.881 643 642.181 643 636.383Z" stroke="#262626" stroke-width="2" stroke-miterlimit="8" fill="#595959" fill-rule="evenodd"/><text font-family="KoreanGD16R,KoreanGD16R_MSFontService,sans-serif" font-weight="400" font-size="20" transform="matrix(1 0 0 0.999816 65.7639 708)">ALT</text><text font-family="KoreanGD12R,KoreanGD12R_MSFontService,sans-serif" font-weight="400" font-size="19" transform="matrix(1 0 0 0.999816 155.213 685)">정상</text><text font-family="KoreanGD12R,KoreanGD12R_MSFontService,sans-serif" font-weight="400" font-size="19" transform="matrix(1 0 0 0.999816 636.253 685)">높음</text><path d="M173 701.871 654.039 701.871" stroke="#262626" stroke-width="2" stroke-miterlimit="8" fill="#262626" fill-rule="evenodd"/><path d="M162 702.871C162 697.349 166.477 692.873 172 692.873 177.523 692.873 182 697.349 182 702.871 182 708.393 177.523 712.869 172 712.869 166.477 712.869 162 708.393 162 702.871Z" stroke="#262626" stroke-width="2" stroke-miterlimit="8" fill="#595959" fill-rule="evenodd"/><path d="M643 702.871C643 697.349 647.477 692.873 653 692.873 658.523 692.873 663 697.349 663 702.871 663 708.393 658.523 712.869 653 712.869 647.477 712.869 643 708.393 643 702.871Z" stroke="#262626" stroke-width="2" stroke-miterlimit="8" fill="#595959" fill-rule="evenodd"/><text font-family="KoreanGD16R,KoreanGD16R_MSFontService,sans-serif" font-weight="400" font-size="20" transform="matrix(1 0 0 0.999816 54.8135 775)">γ</text><text font-family="KoreanGD16R,KoreanGD16R_MSFontService,sans-serif" font-weight="400" font-size="20" transform="matrix(1 0 0 0.999816 63.6469 775)">-</text><text font-family="KoreanGD16R,KoreanGD16R_MSFontService,sans-serif" font-weight="400" font-size="20" transform="matrix(1 0 0 0.999816 73.9802 775)">GTP</text><path d="M173 768.859 654.039 768.859" stroke="#262626" stroke-width="2" stroke-miterlimit="8" fill="#262626" fill-rule="evenodd"/><path d="M162 769.859C162 764.337 166.477 759.86 172 759.86 177.523 759.86 182 764.337 182 769.859 182 775.38 177.523 779.857 172 779.857 166.477 779.857 162 775.38 162 769.859Z" stroke="#262626" stroke-width="2" stroke-miterlimit="8" fill="#595959" fill-rule="evenodd"/><path d="M643 769.859C643 764.337 647.477 759.86 653 759.86 658.523 759.86 663 764.337 663 769.859 663 775.38 658.523 779.857 653 779.857 647.477 779.857 643 775.38 643 769.859Z" stroke="#262626" stroke-width="2" stroke-miterlimit="8" fill="#595959" fill-rule="evenodd"/><text font-family="KoreanGD12R,KoreanGD12R_MSFontService,sans-serif" font-weight="400" font-size="19" transform="matrix(1 0 0 0.999816 155.213 750)">정상</text><text font-family="KoreanGD12R,KoreanGD12R_MSFontService,sans-serif" font-weight="400" font-size="19" transform="matrix(1 0 0 0.999816 636.253 750)">이상</text><text font-family="NanumSquare_ac ExtraBold,NanumSquare_ac ExtraBold_MSFontService,sans-serif" font-weight="800" font-size="24" transform="matrix(1 0 0 0.999816 145.839 853)">그림</text><text font-family="NanumSquare_ac ExtraBold,NanumSquare_ac ExtraBold_MSFontService,sans-serif" font-weight="800" font-size="24" transform="matrix(1 0 0 0.999816 193.172 853)">1.</text><text font-family="NanumSquare_ac ExtraBold,NanumSquare_ac ExtraBold_MSFontService,sans-serif" font-weight="800" font-size="24" transform="matrix(1 0 0 0.999816 222.172 853)">건강검진</text><text font-family="NanumSquare_ac ExtraBold,NanumSquare_ac ExtraBold_MSFontService,sans-serif" font-weight="800" font-size="24" transform="matrix(1 0 0 0.999816 310.839 853)">항목</text><text font-family="NanumSquare_ac ExtraBold,NanumSquare_ac ExtraBold_MSFontService,sans-serif" font-weight="800" font-size="24" transform="matrix(1 0 0 0.999816 358.172 853)">및</text><text font-family="NanumSquare_ac ExtraBold,NanumSquare_ac ExtraBold_MSFontService,sans-serif" font-weight="800" font-size="24" transform="matrix(1 0 0 0.999816 384.839 853)">결과</text><text font-family="NanumSquare_ac ExtraBold,NanumSquare_ac ExtraBold_MSFontService,sans-serif" font-weight="800" font-size="24" transform="matrix(1 0 0 0.999816 432.172 853)">해석</text><text font-family="NanumSquare_ac ExtraBold,NanumSquare_ac ExtraBold_MSFontService,sans-serif" font-weight="800" font-size="24" transform="matrix(1 0 0 0.999816 479.506 853)">수준의</text><text font-family="NanumSquare_ac ExtraBold,NanumSquare_ac ExtraBold_MSFontService,sans-serif" font-weight="800" font-size="24" transform="matrix(1 0 0 0.999816 547.505 853)">예</text></g></svg>