<svg width="3780" height="720" xmlns="http://www.w3.org/2000/svg" xmlns:xlink="http://www.w3.org/1999/xlink" overflow="hidden"><g><rect x="0" y="0" width="3780" height="719.905" fill="#FFFFFF"/><path d="M87.6681 99.0557 561.639 99.0557 561.639 217.975 87.6681 217.975Z" fill="#D1D1D1" fill-rule="evenodd"/><path d="M561.639 99.0557 771.899 99.0557 771.899 217.975 561.639 217.975Z" fill="#D1D1D1" fill-rule="evenodd"/><path d="M771.899 99.0557 982.16 99.0557 982.16 217.975 771.899 217.975Z" fill="#D1D1D1" fill-rule="evenodd"/><path d="M982.16 99.0557 1192.42 99.0557 1192.42 217.975 982.16 217.975Z" fill="#D1D1D1" fill-rule="evenodd"/><path d="M1192.42 99.0557 1402.68 99.0557 1402.68 217.975 1192.42 217.975Z" fill="#D1D1D1" fill-rule="evenodd"/><path d="M1402.68 99.0557 1612.94 99.0557 1612.94 217.975 1402.68 217.975Z" fill="#D1D1D1" fill-rule="evenodd"/><path d="M1612.94 99.0557 1823.2 99.0557 1823.2 217.975 1612.94 217.975Z" fill="#D1D1D1" fill-rule="evenodd"/><path d="M1823.2 99.0557 2033.46 99.0557 2033.46 217.975 1823.2 217.975Z" fill="#D1D1D1" fill-rule="evenodd"/><path d="M2033.46 99.0557 2243.72 99.0557 2243.72 217.975 2033.46 217.975Z" fill="#D1D1D1" fill-rule="evenodd"/><path d="M2243.72 99.0557 2624.04 99.0557 2624.04 217.975 2243.72 217.975Z" fill="#D1D1D1" fill-rule="evenodd"/><path d="M2624.04 99.0557 2921.37 99.0557 2921.37 217.975 2624.04 217.975Z" fill="#D1D1D1" fill-rule="evenodd"/><path d="M2921.37 99.0557 3097.05 99.0557 3097.05 217.975 2921.37 217.975Z" fill="#D1D1D1" fill-rule="evenodd"/><path d="M3097.05 99.0557 3281.88 99.0557 3281.88 217.975 3097.05 217.975Z" fill="#D1D1D1" fill-rule="evenodd"/><path d="M3281.88 99.0557 3464.3 99.0557 3464.3 217.975 3281.88 217.975Z" fill="#D1D1D1" fill-rule="evenodd"/><path d="M3464.3 99.0557 3692.33 99.0557 3692.33 217.975 3464.3 217.975Z" fill="#D1D1D1" fill-rule="evenodd"/><path d="M87.6681 217.975 561.639 217.975 561.639 297.609 87.6681 297.609Z" fill="#F2F2F2" fill-rule="evenodd"/><path d="M87.6681 297.609 561.639 297.609 561.639 377.243 87.6681 377.243Z" fill="#F2F2F2" fill-rule="evenodd"/><path d="M87.6681 377.243 561.639 377.243 561.639 456.877 87.6681 456.877Z" fill="#F2F2F2" fill-rule="evenodd"/><path d="M87.6681 456.877 561.639 456.877 561.639 536.51 87.6681 536.51Z" fill="#F2F2F2" fill-rule="evenodd"/><path d="M87.6681 536.51 561.639 536.51 561.639 616.144 87.6681 616.144Z" fill="#F2F2F2" fill-rule="evenodd"/><path d="M561.639 98.3891 561.639 616.811" stroke="#747474" stroke-width="1.33351" stroke-linejoin="round" stroke-miterlimit="10" fill="none" fill-rule="evenodd"/><path d="M771.899 98.3891 771.899 616.811" stroke="#747474" stroke-width="1.33351" stroke-linejoin="round" stroke-miterlimit="10" fill="none" fill-rule="evenodd"/><path d="M982.16 98.3891 982.16 616.811" stroke="#747474" stroke-width="1.33351" stroke-linejoin="round" stroke-miterlimit="10" fill="none" fill-rule="evenodd"/><path d="M1192.42 98.3891 1192.42 616.811" stroke="#747474" stroke-width="1.33351" stroke-linejoin="round" stroke-miterlimit="10" fill="none" fill-rule="evenodd"/><path d="M1402.68 98.3891 1402.68 616.811" stroke="#747474" stroke-width="1.33351" stroke-linejoin="round" stroke-miterlimit="10" fill="none" fill-rule="evenodd"/><path d="M1612.94 98.3891 1612.94 616.811" stroke="#747474" stroke-width="1.33351" stroke-linejoin="round" stroke-miterlimit="10" fill="none" fill-rule="evenodd"/><path d="M1823.2 98.3891 1823.2 616.811" stroke="#747474" stroke-width="1.33351" stroke-linejoin="round" stroke-miterlimit="10" fill="none" fill-rule="evenodd"/><path d="M2033.46 98.3891 2033.46 616.811" stroke="#747474" stroke-width="1.33351" stroke-linejoin="round" stroke-miterlimit="10" fill="none" fill-rule="evenodd"/><path d="M2243.72 98.3891 2243.72 616.811" stroke="#747474" stroke-width="1.33351" stroke-linejoin="round" stroke-miterlimit="10" fill="none" fill-rule="evenodd"/><path d="M2624.04 98.3891 2624.04 616.811" stroke="#747474" stroke-width="1.33351" stroke-linejoin="round" stroke-miterlimit="10" fill="none" fill-rule="evenodd"/><path d="M2921.37 98.3891 2921.37 616.811" stroke="#747474" stroke-width="1.33351" stroke-linejoin="round" stroke-miterlimit="10" fill="none" fill-rule="evenodd"/><path d="M3097.05 98.3891 3097.05 616.811" stroke="#747474" stroke-width="1.33351" stroke-linejoin="round" stroke-miterlimit="10" fill="none" fill-rule="evenodd"/><path d="M3281.88 98.3891 3281.88 616.811" stroke="#747474" stroke-width="1.33351" stroke-linejoin="round" stroke-miterlimit="10" fill="none" fill-rule="evenodd"/><path d="M3464.3 98.3891 3464.3 616.811" stroke="#747474" stroke-width="1.33351" stroke-linejoin="round" stroke-miterlimit="10" fill="none" fill-rule="evenodd"/><path d="M87.0013 217.975 3693 217.975" stroke="#747474" stroke-width="1.33351" stroke-linejoin="round" stroke-miterlimit="10" fill="none" fill-rule="evenodd"/><path d="M87.0013 297.609 3693 297.609" stroke="#747474" stroke-width="1.33351" stroke-linejoin="round" stroke-miterlimit="10" fill="none" fill-rule="evenodd"/><path d="M87.0013 377.243 3693 377.243" stroke="#747474" stroke-width="1.33351" stroke-linejoin="round" stroke-miterlimit="10" fill="none" fill-rule="evenodd"/><path d="M87.0013 456.877 3693 456.877" stroke="#747474" stroke-width="1.33351" stroke-linejoin="round" stroke-miterlimit="10" fill="none" fill-rule="evenodd"/><path d="M87.0013 536.51 3693 536.51" stroke="#747474" stroke-width="1.33351" stroke-linejoin="round" stroke-miterlimit="10" fill="none" fill-rule="evenodd"/><path d="M87.6681 98.3891 87.6681 616.811" stroke="#747474" stroke-width="1.33351" stroke-linejoin="round" stroke-miterlimit="10" fill="none" fill-rule="evenodd"/><path d="M3692.33 98.3891 3692.33 616.811" stroke="#747474" stroke-width="1.33351" stroke-linejoin="round" stroke-miterlimit="10" fill="none" fill-rule="evenodd"/><path d="M87.0013 99.0557 3693 99.0557" stroke="#747474" stroke-width="1.33351" stroke-linejoin="round" stroke-miterlimit="10" fill="none" fill-rule="evenodd"/><path d="M87.0013 616.144 3693 616.144" stroke="#747474" stroke-width="1.33351" stroke-linejoin="round" stroke-miterlimit="10" fill="none" fill-rule="evenodd"/><g><text font-family="NanumSquare_ac ExtraBold,NanumSquare_ac ExtraBold_MSFontService,sans-serif" font-weight="800" font-size="48" transform="matrix(1 0 0 0.999868 3483.09 174)">Average</text></g><g><text font-family="NanumSquare_ac ExtraBold,NanumSquare_ac ExtraBold_MSFontService,sans-serif" font-weight="800" font-size="48" transform="matrix(1 0 0 0.999868 3304.58 174)">γ</text></g><text font-family="NanumSquare_ac ExtraBold,NanumSquare_ac ExtraBold_MSFontService,sans-serif" font-weight="800" font-size="48" transform="matrix(1 0 0 0.999868 3330.25 174)">-</text><g><text font-family="NanumSquare_ac ExtraBold,NanumSquare_ac ExtraBold_MSFontService,sans-serif" font-weight="800" font-size="48" transform="matrix(1 0 0 0.999868 3350.75 174)">GTP</text></g><text font-family="NanumSquare_ac ExtraBold,NanumSquare_ac ExtraBold_MSFontService,sans-serif" font-weight="800" font-size="48" transform="matrix(1 0 0 0.999868 3147.23 174)">ALT</text><text font-family="NanumSquare_ac ExtraBold,NanumSquare_ac ExtraBold_MSFontService,sans-serif" font-weight="800" font-size="48" transform="matrix(1 0 0 0.999868 2963.95 174)">AST</text><text font-family="NanumSquare_ac ExtraBold,NanumSquare_ac ExtraBold_MSFontService,sans-serif" font-weight="800" font-size="48" transform="matrix(1 0 0 0.999868 2696.11 145)">Serum</text><g><text font-family="NanumSquare_ac ExtraBold,NanumSquare_ac ExtraBold_MSFontService,sans-serif" font-weight="800" font-size="48" transform="matrix(1 0 0 0.999868 2651.27 203)">Creatinine</text></g><text font-family="NanumSquare_ac ExtraBold,NanumSquare_ac ExtraBold_MSFontService,sans-serif" font-weight="800" font-size="48" transform="matrix(1 0 0 0.999868 2279.06 174)">Urine Protein</text><text font-family="NanumSquare_ac ExtraBold,NanumSquare_ac ExtraBold_MSFontService,sans-serif" font-weight="800" font-size="48" transform="matrix(1 0 0 0.999868 2106.67 174)">Hb</text><text font-family="NanumSquare_ac ExtraBold,NanumSquare_ac ExtraBold_MSFontService,sans-serif" font-weight="800" font-size="48" transform="matrix(1 0 0 0.999868 1859.53 174)">LDL</text><text font-family="NanumSquare_ac ExtraBold,NanumSquare_ac ExtraBold_MSFontService,sans-serif" font-weight="800" font-size="48" transform="matrix(1 0 0 0.999868 1944.96 174)">-</text><text font-family="NanumSquare_ac ExtraBold,NanumSquare_ac ExtraBold_MSFontService,sans-serif" font-weight="800" font-size="48" transform="matrix(1 0 0 0.999868 1965.46 174)">C</text><text font-family="NanumSquare_ac ExtraBold,NanumSquare_ac ExtraBold_MSFontService,sans-serif" font-weight="800" font-size="48" transform="matrix(1 0 0 0.999868 1645.52 174)">HDL</text><text font-family="NanumSquare_ac ExtraBold,NanumSquare_ac ExtraBold_MSFontService,sans-serif" font-weight="800" font-size="48" transform="matrix(1 0 0 0.999868 1738.45 174)">-</text><text font-family="NanumSquare_ac ExtraBold,NanumSquare_ac ExtraBold_MSFontService,sans-serif" font-weight="800" font-size="48" transform="matrix(1 0 0 0.999868 1758.95 174)">C</text><text font-family="NanumSquare_ac ExtraBold,NanumSquare_ac ExtraBold_MSFontService,sans-serif" font-weight="800" font-size="48" transform="matrix(1 0 0 0.999868 1478.02 174)">TG</text><text font-family="NanumSquare_ac ExtraBold,NanumSquare_ac ExtraBold_MSFontService,sans-serif" font-weight="800" font-size="48" transform="matrix(1 0 0 0.999868 1257.79 174)">T</text><text font-family="NanumSquare_ac ExtraBold,NanumSquare_ac ExtraBold_MSFontService,sans-serif" font-weight="800" font-size="48" transform="matrix(1 0 0 0.999868 1285.13 174)">-</text><text font-family="NanumSquare_ac ExtraBold,NanumSquare_ac ExtraBold_MSFontService,sans-serif" font-weight="800" font-size="48" transform="matrix(1 0 0 0.999868 1305.63 174)">C</text><text font-family="NanumSquare_ac ExtraBold,NanumSquare_ac ExtraBold_MSFontService,sans-serif" font-weight="800" font-size="48" transform="matrix(1 0 0 0.999868 1041.03 174)">FBG</text><text font-family="NanumSquare_ac ExtraBold,NanumSquare_ac ExtraBold_MSFontService,sans-serif" font-weight="800" font-size="48" transform="matrix(1 0 0 0.999868 845.942 174)">BP</text><text font-family="NanumSquare_ac ExtraBold,NanumSquare_ac ExtraBold_MSFontService,sans-serif" font-weight="800" font-size="48" transform="matrix(1 0 0 0.999868 622.93 174)">BMI</text><text font-family="NanumSquare_ac ExtraBold,NanumSquare_ac ExtraBold_MSFontService,sans-serif" font-weight="800" font-size="48" transform="matrix(1 0 0 0.999868 198.804 174)">LLM model</text><text font-family="NanumSquare_ac ExtraBold,NanumSquare_ac ExtraBold_MSFontService,sans-serif" font-weight="800" font-size="48" transform="matrix(1 0 0 0.999868 3510.39 273)">0.824</text><text font-family="NanumSquare_ac,NanumSquare_ac_MSFontService,sans-serif" font-weight="400" font-size="48" transform="matrix(1 0 0 0.999868 3323.92 273)">0.86</text><text font-family="NanumSquare_ac,NanumSquare_ac_MSFontService,sans-serif" font-weight="400" font-size="48" transform="matrix(1 0 0 0.999868 3140.29 273)">0.93</text><text font-family="NanumSquare_ac,NanumSquare_ac_MSFontService,sans-serif" font-weight="400" font-size="48" transform="matrix(1 0 0 0.999868 2960.04 273)">0.97</text><text fill="#0070C0" font-family="NanumSquare_ac,NanumSquare_ac_MSFontService,sans-serif" font-weight="400" font-size="48" transform="matrix(1 0 0 0.999868 2723.53 273)">1.00</text><text fill="#0070C0" font-family="NanumSquare_ac,NanumSquare_ac_MSFontService,sans-serif" font-weight="400" font-size="48" transform="matrix(1 0 0 0.999868 2384.71 273)">1.00</text><text font-family="NanumSquare_ac,NanumSquare_ac_MSFontService,sans-serif" font-weight="400" font-size="48" transform="matrix(1 0 0 0.999868 2089.42 273)">0.82</text><text fill="#FF0000" font-family="NanumSquare_ac,NanumSquare_ac_MSFontService,sans-serif" font-weight="400" font-size="48" transform="matrix(1 0 0 0.999868 1879.16 273)">0.48</text><text font-family="NanumSquare_ac,NanumSquare_ac_MSFontService,sans-serif" font-weight="400" font-size="48" transform="matrix(1 0 0 0.999868 1668.9 273)">0.64</text><text font-family="NanumSquare_ac,NanumSquare_ac_MSFontService,sans-serif" font-weight="400" font-size="48" transform="matrix(1 0 0 0.999868 1458.64 273)">0.92</text><text font-family="NanumSquare_ac,NanumSquare_ac_MSFontService,sans-serif" font-weight="400" font-size="48" transform="matrix(1 0 0 0.999868 1248.38 273)">0.80</text><text font-family="NanumSquare_ac,NanumSquare_ac_MSFontService,sans-serif" font-weight="400" font-size="48" transform="matrix(1 0 0 0.999868 1038.12 273)">0.66</text><text font-family="NanumSquare_ac,NanumSquare_ac_MSFontService,sans-serif" font-weight="400" font-size="48" transform="matrix(1 0 0 0.999868 827.856 273)">0.67</text><text font-family="NanumSquare_ac,NanumSquare_ac_MSFontService,sans-serif" font-weight="400" font-size="48" transform="matrix(1 0 0 0.999868 617.596 273)">0.96</text><text font-family="NanumSquare_ac Bold,NanumSquare_ac Bold_MSFontService,sans-serif" font-weight="700" font-size="48" transform="matrix(1 0 0 0.999868 247.81 273)">gpt</text><text font-family="NanumSquare_ac Bold,NanumSquare_ac Bold_MSFontService,sans-serif" font-weight="700" font-size="48" transform="matrix(1 0 0 0.999868 323.82 273)">-</text><text font-family="NanumSquare_ac Bold,NanumSquare_ac Bold_MSFontService,sans-serif" font-weight="700" font-size="48" transform="matrix(1 0 0 0.999868 343.99 273)">4o</text><text font-family="NanumSquare_ac ExtraBold,NanumSquare_ac ExtraBold_MSFontService,sans-serif" font-weight="800" font-size="48" transform="matrix(1 0 0 0.999868 3510.39 353)">0.838</text><text font-family="NanumSquare_ac,NanumSquare_ac_MSFontService,sans-serif" font-weight="400" font-size="48" transform="matrix(1 0 0 0.999868 3323.92 353)">0.89</text><text font-family="NanumSquare_ac,NanumSquare_ac_MSFontService,sans-serif" font-weight="400" font-size="48" transform="matrix(1 0 0 0.999868 3140.29 353)">0.90</text><text fill="#0070C0" font-family="NanumSquare_ac,NanumSquare_ac_MSFontService,sans-serif" font-weight="400" font-size="48" transform="matrix(1 0 0 0.999868 2960.04 353)">1.00</text><text fill="#0070C0" font-family="NanumSquare_ac,NanumSquare_ac_MSFontService,sans-serif" font-weight="400" font-size="48" transform="matrix(1 0 0 0.999868 2723.53 353)">1.00</text><text fill="#0070C0" font-family="NanumSquare_ac,NanumSquare_ac_MSFontService,sans-serif" font-weight="400" font-size="48" transform="matrix(1 0 0 0.999868 2384.71 353)">1.00</text><text font-family="NanumSquare_ac,NanumSquare_ac_MSFontService,sans-serif" font-weight="400" font-size="48" transform="matrix(1 0 0 0.999868 2089.42 353)">0.85</text><text font-family="NanumSquare_ac,NanumSquare_ac_MSFontService,sans-serif" font-weight="400" font-size="48" transform="matrix(1 0 0 0.999868 1879.16 353)">0.59</text><text fill="#FF0000" font-family="NanumSquare_ac,NanumSquare_ac_MSFontService,sans-serif" font-weight="400" font-size="48" transform="matrix(1 0 0 0.999868 1668.9 353)">0.50</text><text font-family="NanumSquare_ac,NanumSquare_ac_MSFontService,sans-serif" font-weight="400" font-size="48" transform="matrix(1 0 0 0.999868 1458.64 353)">0.92</text><text font-family="NanumSquare_ac,NanumSquare_ac_MSFontService,sans-serif" font-weight="400" font-size="48" transform="matrix(1 0 0 0.999868 1248.38 353)">0.69</text><text font-family="NanumSquare_ac,NanumSquare_ac_MSFontService,sans-serif" font-weight="400" font-size="48" transform="matrix(1 0 0 0.999868 1038.12 353)">0.82</text><text font-family="NanumSquare_ac,NanumSquare_ac_MSFontService,sans-serif" font-weight="400" font-size="48" transform="matrix(1 0 0 0.999868 827.856 353)">0.74</text><text font-family="NanumSquare_ac,NanumSquare_ac_MSFontService,sans-serif" font-weight="400" font-size="48" transform="matrix(1 0 0 0.999868 617.596 353)">1.00</text><text font-family="NanumSquare_ac Bold,NanumSquare_ac Bold_MSFontService,sans-serif" font-weight="700" font-size="48" transform="matrix(1 0 0 0.999868 124.877 353)">claude</text><text font-family="NanumSquare_ac Bold,NanumSquare_ac Bold_MSFontService,sans-serif" font-weight="700" font-size="48" transform="matrix(1 0 0 0.999868 284.232 353)">3.5 sonnet</text><text font-family="NanumSquare_ac ExtraBold,NanumSquare_ac ExtraBold_MSFontService,sans-serif" font-weight="800" font-size="48" transform="matrix(1 0 0 0.999868 3510.39 432)">0.798</text><text font-family="NanumSquare_ac,NanumSquare_ac_MSFontService,sans-serif" font-weight="400" font-size="48" transform="matrix(1 0 0 0.999868 3323.92 432)">0.89</text><text font-family="NanumSquare_ac,NanumSquare_ac_MSFontService,sans-serif" font-weight="400" font-size="48" transform="matrix(1 0 0 0.999868 3140.29 432)">0.91</text><text font-family="NanumSquare_ac,NanumSquare_ac_MSFontService,sans-serif" font-weight="400" font-size="48" transform="matrix(1 0 0 0.999868 2960.04 432)">0.96</text><text fill="#0070C0" font-family="NanumSquare_ac,NanumSquare_ac_MSFontService,sans-serif" font-weight="400" font-size="48" transform="matrix(1 0 0 0.999868 2723.53 432)">1.00</text><text fill="#0070C0" font-family="NanumSquare_ac,NanumSquare_ac_MSFontService,sans-serif" font-weight="400" font-size="48" transform="matrix(1 0 0 0.999868 2384.71 432)">1.00</text><text font-family="NanumSquare_ac,NanumSquare_ac_MSFontService,sans-serif" font-weight="400" font-size="48" transform="matrix(1 0 0 0.999868 2089.42 432)">0.84</text><text font-family="NanumSquare_ac,NanumSquare_ac_MSFontService,sans-serif" font-weight="400" font-size="48" transform="matrix(1 0 0 0.999868 1879.16 432)">0.51</text><text font-family="NanumSquare_ac,NanumSquare_ac_MSFontService,sans-serif" font-weight="400" font-size="48" transform="matrix(1 0 0 0.999868 1668.9 432)">0.71</text><text font-family="NanumSquare_ac,NanumSquare_ac_MSFontService,sans-serif" font-weight="400" font-size="48" transform="matrix(1 0 0 0.999868 1458.64 432)">0.88</text><text fill="#FF0000" font-family="NanumSquare_ac,NanumSquare_ac_MSFontService,sans-serif" font-weight="400" font-size="48" transform="matrix(1 0 0 0.999868 1248.38 432)">0.47</text><text font-family="NanumSquare_ac,NanumSquare_ac_MSFontService,sans-serif" font-weight="400" font-size="48" transform="matrix(1 0 0 0.999868 1038.12 432)">0.70</text><text font-family="NanumSquare_ac,NanumSquare_ac_MSFontService,sans-serif" font-weight="400" font-size="48" transform="matrix(1 0 0 0.999868 827.856 432)">0.70</text><text font-family="NanumSquare_ac,NanumSquare_ac_MSFontService,sans-serif" font-weight="400" font-size="48" transform="matrix(1 0 0 0.999868 617.596 432)">0.81</text><text font-family="NanumSquare_ac Bold,NanumSquare_ac Bold_MSFontService,sans-serif" font-weight="700" font-size="48" transform="matrix(1 0 0 0.999868 161.539 432)">gemini</text><text font-family="NanumSquare_ac Bold,NanumSquare_ac Bold_MSFontService,sans-serif" font-weight="700" font-size="48" transform="matrix(1 0 0 0.999868 326.227 432)">1.5 pro</text><text font-family="NanumSquare_ac ExtraBold,NanumSquare_ac ExtraBold_MSFontService,sans-serif" font-weight="800" font-size="48" transform="matrix(1 0 0 0.999868 3510.39 512)">0.560</text><text font-family="NanumSquare_ac,NanumSquare_ac_MSFontService,sans-serif" font-weight="400" font-size="48" transform="matrix(1 0 0 0.999868 3323.92 512)">0.80</text><text font-family="NanumSquare_ac,NanumSquare_ac_MSFontService,sans-serif" font-weight="400" font-size="48" transform="matrix(1 0 0 0.999868 3140.29 512)">0.81</text><text font-family="NanumSquare_ac,NanumSquare_ac_MSFontService,sans-serif" font-weight="400" font-size="48" transform="matrix(1 0 0 0.999868 2960.04 512)">0.96</text><text fill="#0070C0" font-family="NanumSquare_ac,NanumSquare_ac_MSFontService,sans-serif" font-weight="400" font-size="48" transform="matrix(1 0 0 0.999868 2723.53 512)">0.98</text><text font-family="NanumSquare_ac,NanumSquare_ac_MSFontService,sans-serif" font-weight="400" font-size="48" transform="matrix(1 0 0 0.999868 2384.71 512)">0.90</text><text font-family="NanumSquare_ac,NanumSquare_ac_MSFontService,sans-serif" font-weight="400" font-size="48" transform="matrix(1 0 0 0.999868 2089.42 512)">0.81</text><text font-family="NanumSquare_ac,NanumSquare_ac_MSFontService,sans-serif" font-weight="400" font-size="48" transform="matrix(1 0 0 0.999868 1879.16 512)">0.21</text><text font-family="NanumSquare_ac,NanumSquare_ac_MSFontService,sans-serif" font-weight="400" font-size="48" transform="matrix(1 0 0 0.999868 1668.9 512)">0.39</text><text font-family="NanumSquare_ac,NanumSquare_ac_MSFontService,sans-serif" font-weight="400" font-size="48" transform="matrix(1 0 0 0.999868 1458.64 512)">0.26</text><text font-family="NanumSquare_ac,NanumSquare_ac_MSFontService,sans-serif" font-weight="400" font-size="48" transform="matrix(1 0 0 0.999868 1248.38 512)">0.37</text><text font-family="NanumSquare_ac,NanumSquare_ac_MSFontService,sans-serif" font-weight="400" font-size="48" transform="matrix(1 0 0 0.999868 1038.12 512)">0.25</text><text font-family="NanumSquare_ac,NanumSquare_ac_MSFontService,sans-serif" font-weight="400" font-size="48" transform="matrix(1 0 0 0.999868 827.856 512)">0.48</text><text fill="#FF0000" font-family="NanumSquare_ac,NanumSquare_ac_MSFontService,sans-serif" font-weight="400" font-size="48" transform="matrix(1 0 0 0.999868 617.596 512)">0.06</text><text font-family="NanumSquare_ac Bold,NanumSquare_ac Bold_MSFontService,sans-serif" font-weight="700" font-size="48" transform="matrix(1 0 0 0.999868 188.319 512)">EXAONE 3.0</text><text font-family="NanumSquare_ac ExtraBold,NanumSquare_ac ExtraBold_MSFontService,sans-serif" font-weight="800" font-size="48" transform="matrix(1 0 0 0.999868 3510.39 591)">0.628</text><text font-family="NanumSquare_ac,NanumSquare_ac_MSFontService,sans-serif" font-weight="400" font-size="48" transform="matrix(1 0 0 0.999868 3323.92 591)">0.68</text><text font-family="NanumSquare_ac,NanumSquare_ac_MSFontService,sans-serif" font-weight="400" font-size="48" transform="matrix(1 0 0 0.999868 3140.29 591)">0.75</text><text font-family="NanumSquare_ac,NanumSquare_ac_MSFontService,sans-serif" font-weight="400" font-size="48" transform="matrix(1 0 0 0.999868 2960.04 591)">0.88</text><text fill="#0070C0" font-family="NanumSquare_ac,NanumSquare_ac_MSFontService,sans-serif" font-weight="400" font-size="48" transform="matrix(1 0 0 0.999868 2723.53 591)">0.92</text><text font-family="NanumSquare_ac,NanumSquare_ac_MSFontService,sans-serif" font-weight="400" font-size="48" transform="matrix(1 0 0 0.999868 2384.71 591)">0.88</text><text font-family="NanumSquare_ac,NanumSquare_ac_MSFontService,sans-serif" font-weight="400" font-size="48" transform="matrix(1 0 0 0.999868 2089.42 591)">0.73</text><text font-family="NanumSquare_ac,NanumSquare_ac_MSFontService,sans-serif" font-weight="400" font-size="48" transform="matrix(1 0 0 0.999868 1879.16 591)">0.41</text><text font-family="NanumSquare_ac,NanumSquare_ac_MSFontService,sans-serif" font-weight="400" font-size="48" transform="matrix(1 0 0 0.999868 1668.9 591)">0.59</text><text font-family="NanumSquare_ac,NanumSquare_ac_MSFontService,sans-serif" font-weight="400" font-size="48" transform="matrix(1 0 0 0.999868 1458.64 591)">0.46</text><text font-family="NanumSquare_ac,NanumSquare_ac_MSFontService,sans-serif" font-weight="400" font-size="48" transform="matrix(1 0 0 0.999868 1248.38 591)">0.56</text><text font-family="NanumSquare_ac,NanumSquare_ac_MSFontService,sans-serif" font-weight="400" font-size="48" transform="matrix(1 0 0 0.999868 1038.12 591)">0.68</text><text font-family="NanumSquare_ac,NanumSquare_ac_MSFontService,sans-serif" font-weight="400" font-size="48" transform="matrix(1 0 0 0.999868 827.856 591)">0.57</text><text fill="#FF0000" font-family="NanumSquare_ac,NanumSquare_ac_MSFontService,sans-serif" font-weight="400" font-size="48" transform="matrix(1 0 0 0.999868 617.596 591)">0.05</text><text font-family="NanumSquare_ac Bold,NanumSquare_ac Bold_MSFontService,sans-serif" font-weight="700" font-size="48" transform="matrix(1 0 0 0.999868 221.973 591)">llama 3.1</text><text font-family="NanumSquare_ac ExtraBold,NanumSquare_ac ExtraBold_MSFontService,sans-serif" font-weight="800" font-size="53" transform="matrix(1 0 0 0.999868 1038.39 66)">표</text><text font-family="NanumSquare_ac ExtraBold,NanumSquare_ac ExtraBold_MSFontService,sans-serif" font-weight="800" font-size="53" transform="matrix(1 0 0 0.999868 1097.57 66)">1.</text><text font-family="NanumSquare_ac ExtraBold,NanumSquare_ac ExtraBold_MSFontService,sans-serif" font-weight="800" font-size="53" transform="matrix(1 0 0 0.999868 1162.24 66)">대규모</text><text font-family="NanumSquare_ac ExtraBold,NanumSquare_ac ExtraBold_MSFontService,sans-serif" font-weight="800" font-size="53" transform="matrix(1 0 0 0.999868 1313.1 66)">언어</text><text font-family="NanumSquare_ac ExtraBold,NanumSquare_ac ExtraBold_MSFontService,sans-serif" font-weight="800" font-size="53" transform="matrix(1 0 0 0.999868 1418.11 66)">모델의</text><text font-family="NanumSquare_ac ExtraBold,NanumSquare_ac ExtraBold_MSFontService,sans-serif" font-weight="800" font-size="53" transform="matrix(1 0 0 0.999868 1568.96 66)">건강검진</text><text font-family="NanumSquare_ac ExtraBold,NanumSquare_ac ExtraBold_MSFontService,sans-serif" font-weight="800" font-size="53" transform="matrix(1 0 0 0.999868 1765.66 66)">결과</text><text font-family="NanumSquare_ac ExtraBold,NanumSquare_ac ExtraBold_MSFontService,sans-serif" font-weight="800" font-size="53" transform="matrix(1 0 0 0.999868 1870.67 66)">해석</text><text font-family="NanumSquare_ac ExtraBold,NanumSquare_ac ExtraBold_MSFontService,sans-serif" font-weight="800" font-size="53" transform="matrix(1 0 0 0.999868 1975.68 66)">정확도</text><text font-family="NanumSquare_ac ExtraBold,NanumSquare_ac ExtraBold_MSFontService,sans-serif" font-weight="800" font-size="53" transform="matrix(1 0 0 0.999868 2126.54 66)">(</text><text font-family="NanumSquare_ac ExtraBold,NanumSquare_ac ExtraBold_MSFontService,sans-serif" font-weight="800" font-size="53" transform="matrix(1 0 0 0.999868 2145.87 66)">최저</text><text font-family="NanumSquare_ac ExtraBold,NanumSquare_ac ExtraBold_MSFontService,sans-serif" font-weight="800" font-size="53" transform="matrix(1 0 0 0.999868 2237.55 66)">:</text><text font-family="NanumSquare_ac ExtraBold,NanumSquare_ac ExtraBold_MSFontService,sans-serif" font-weight="800" font-size="53" transform="matrix(1 0 0 0.999868 2272.39 66)">빨간색</text><text font-family="NanumSquare_ac ExtraBold,NanumSquare_ac ExtraBold_MSFontService,sans-serif" font-weight="800" font-size="53" transform="matrix(1 0 0 0.999868 2409.91 66)">,</text><text font-family="NanumSquare_ac ExtraBold,NanumSquare_ac ExtraBold_MSFontService,sans-serif" font-weight="800" font-size="53" transform="matrix(1 0 0 0.999868 2441.58 66)">최고</text><text font-family="NanumSquare_ac ExtraBold,NanumSquare_ac ExtraBold_MSFontService,sans-serif" font-weight="800" font-size="53" transform="matrix(1 0 0 0.999868 2533.26 66)">:</text><text font-family="NanumSquare_ac ExtraBold,NanumSquare_ac ExtraBold_MSFontService,sans-serif" font-weight="800" font-size="53" transform="matrix(1 0 0 0.999868 2568.1 66)">파란색</text><text font-family="NanumSquare_ac ExtraBold,NanumSquare_ac ExtraBold_MSFontService,sans-serif" font-weight="800" font-size="53" transform="matrix(1 0 0 0.999868 2705.61 66)">)</text><text font-family="NanumSquare_ac,NanumSquare_ac_MSFontService,sans-serif" font-weight="400" font-size="37" transform="matrix(1 0 0 0.999868 97.2693 663)">BMI</text><text font-family="NanumSquare_ac,NanumSquare_ac_MSFontService,sans-serif" font-weight="400" font-size="37" transform="matrix(1 0 0 0.999868 159.944 663)">:</text><text font-family="NanumSquare_ac,NanumSquare_ac_MSFontService,sans-serif" font-weight="400" font-size="37" transform="matrix(1 0 0 0.999868 188.035 663)">body</text><text font-family="NanumSquare_ac,NanumSquare_ac_MSFontService,sans-serif" font-weight="400" font-size="37" transform="matrix(1 0 0 0.999868 287.761 663)">mass</text><text font-family="NanumSquare_ac,NanumSquare_ac_MSFontService,sans-serif" font-weight="400" font-size="37" transform="matrix(1 0 0 0.999868 394.195 663)">index</text><text font-family="NanumSquare_ac,NanumSquare_ac_MSFontService,sans-serif" font-weight="400" font-size="37" transform="matrix(1 0 0 0.999868 485.167 663)">;</text><text font-family="NanumSquare_ac,NanumSquare_ac_MSFontService,sans-serif" font-weight="400" font-size="37" transform="matrix(1 0 0 0.999868 513.258 663)">BP</text><text font-family="NanumSquare_ac,NanumSquare_ac_MSFontService,sans-serif" font-weight="400" font-size="37" transform="matrix(1 0 0 0.999868 558.597 663)">:</text><text font-family="NanumSquare_ac,NanumSquare_ac_MSFontService,sans-serif" font-weight="400" font-size="37" transform="matrix(1 0 0 0.999868 586.687 663)">blood</text><text font-family="NanumSquare_ac,NanumSquare_ac_MSFontService,sans-serif" font-weight="400" font-size="37" transform="matrix(1 0 0 0.999868 697.249 663)">pressure</text><text font-family="NanumSquare_ac,NanumSquare_ac_MSFontService,sans-serif" font-weight="400" font-size="37" transform="matrix(1 0 0 0.999868 847.142 663)">;</text><text font-family="NanumSquare_ac,NanumSquare_ac_MSFontService,sans-serif" font-weight="400" font-size="37" transform="matrix(1 0 0 0.999868 875.232 663)">FBG</text><text font-family="NanumSquare_ac,NanumSquare_ac_MSFontService,sans-serif" font-weight="400" font-size="37" transform="matrix(1 0 0 0.999868 943.741 663)">:</text><text font-family="NanumSquare_ac,NanumSquare_ac_MSFontService,sans-serif" font-weight="400" font-size="37" transform="matrix(1 0 0 0.999868 971.832 663)">fasting</text><text font-family="NanumSquare_ac,NanumSquare_ac_MSFontService,sans-serif" font-weight="400" font-size="37" transform="matrix(1 0 0 0.999868 1107.44 663)">blood</text><text font-family="NanumSquare_ac,NanumSquare_ac_MSFontService,sans-serif" font-weight="400" font-size="37" transform="matrix(1 0 0 0.999868 1218.37 663)">glucose</text><text font-family="NanumSquare_ac,NanumSquare_ac_MSFontService,sans-serif" font-weight="400" font-size="37" transform="matrix(1 0 0 0.999868 1348.55 663)">;</text><text font-family="NanumSquare_ac,NanumSquare_ac_MSFontService,sans-serif" font-weight="400" font-size="37" transform="matrix(1 0 0 0.999868 1376.65 663)">T</text><text font-family="NanumSquare_ac,NanumSquare_ac_MSFontService,sans-serif" font-weight="400" font-size="37" transform="matrix(1 0 0 0.999868 1396.86 663)">-</text><text font-family="NanumSquare_ac,NanumSquare_ac_MSFontService,sans-serif" font-weight="400" font-size="37" transform="matrix(1 0 0 0.999868 1412.2 663)">C</text><text font-family="NanumSquare_ac,NanumSquare_ac_MSFontService,sans-serif" font-weight="400" font-size="37" transform="matrix(1 0 0 0.999868 1435.7 663)">:</text><text font-family="NanumSquare_ac,NanumSquare_ac_MSFontService,sans-serif" font-weight="400" font-size="37" transform="matrix(1 0 0 0.999868 1463.79 663)">total</text><text font-family="NanumSquare_ac,NanumSquare_ac_MSFontService,sans-serif" font-weight="400" font-size="37" transform="matrix(1 0 0 0.999868 1542.3 663)">-</text><text font-family="NanumSquare_ac,NanumSquare_ac_MSFontService,sans-serif" font-weight="400" font-size="37" transform="matrix(1 0 0 0.999868 1557.64 663)">cholesterol</text><text font-family="NanumSquare_ac,NanumSquare_ac_MSFontService,sans-serif" font-weight="400" font-size="37" transform="matrix(1 0 0 0.999868 1745.35 663)">;</text><text font-family="NanumSquare_ac,NanumSquare_ac_MSFontService,sans-serif" font-weight="400" font-size="37" transform="matrix(1 0 0 0.999868 1773.44 663)">TG</text><text font-family="NanumSquare_ac,NanumSquare_ac_MSFontService,sans-serif" font-weight="400" font-size="37" transform="matrix(1 0 0 0.999868 1818.68 663)">:</text><text font-family="NanumSquare_ac,NanumSquare_ac_MSFontService,sans-serif" font-weight="400" font-size="37" transform="matrix(1 0 0 0.999868 1846.77 663)">triglycerides</text><text font-family="NanumSquare_ac,NanumSquare_ac_MSFontService,sans-serif" font-weight="400" font-size="37" transform="matrix(1 0 0 0.999868 2056.11 663)">;</text><text font-family="NanumSquare_ac,NanumSquare_ac_MSFontService,sans-serif" font-weight="400" font-size="37" transform="matrix(1 0 0 0.999868 2084.2 663)">HDL</text><text font-family="NanumSquare_ac,NanumSquare_ac_MSFontService,sans-serif" font-weight="400" font-size="37" transform="matrix(1 0 0 0.999868 2153.05 663)">-</text><text font-family="NanumSquare_ac,NanumSquare_ac_MSFontService,sans-serif" font-weight="400" font-size="37" transform="matrix(1 0 0 0.999868 2168.38 663)">C</text><text font-family="NanumSquare_ac,NanumSquare_ac_MSFontService,sans-serif" font-weight="400" font-size="37" transform="matrix(1 0 0 0.999868 2191.89 663)">:</text><text font-family="NanumSquare_ac,NanumSquare_ac_MSFontService,sans-serif" font-weight="400" font-size="37" transform="matrix(1 0 0 0.999868 2219.98 663)">high</text><text font-family="NanumSquare_ac,NanumSquare_ac_MSFontService,sans-serif" font-weight="400" font-size="37" transform="matrix(1 0 0 0.999868 2293.65 663)">-</text><text font-family="NanumSquare_ac,NanumSquare_ac_MSFontService,sans-serif" font-weight="400" font-size="37" transform="matrix(1 0 0 0.999868 2308.99 663)">density</text><text font-family="NanumSquare_ac,NanumSquare_ac_MSFontService,sans-serif" font-weight="400" font-size="37" transform="matrix(1 0 0 0.999868 2449.93 663)">lipoprotein</text><text font-family="NanumSquare_ac,NanumSquare_ac_MSFontService,sans-serif" font-weight="400" font-size="37" transform="matrix(1 0 0 0.999868 2649.04 663)">cholesterol</text><text font-family="NanumSquare_ac,NanumSquare_ac_MSFontService,sans-serif" font-weight="400" font-size="37" transform="matrix(1 0 0 0.999868 2836.75 663)">;</text><text font-family="NanumSquare_ac,NanumSquare_ac_MSFontService,sans-serif" font-weight="400" font-size="37" transform="matrix(1 0 0 0.999868 2864.85 663)">LDL</text><text font-family="NanumSquare_ac,NanumSquare_ac_MSFontService,sans-serif" font-weight="400" font-size="37" transform="matrix(1 0 0 0.999868 2928.36 663)">-</text><text font-family="NanumSquare_ac,NanumSquare_ac_MSFontService,sans-serif" font-weight="400" font-size="37" transform="matrix(1 0 0 0.999868 2943.7 663)">C</text><text font-family="NanumSquare_ac,NanumSquare_ac_MSFontService,sans-serif" font-weight="400" font-size="37" transform="matrix(1 0 0 0.999868 2967.2 663)">:</text><text font-family="NanumSquare_ac,NanumSquare_ac_MSFontService,sans-serif" font-weight="400" font-size="37" transform="matrix(1 0 0 0.999868 2995.3 663)">low</text><text font-family="NanumSquare_ac,NanumSquare_ac_MSFontService,sans-serif" font-weight="400" font-size="37" transform="matrix(1 0 0 0.999868 3053.03 663)">-</text><text font-family="NanumSquare_ac,NanumSquare_ac_MSFontService,sans-serif" font-weight="400" font-size="37" transform="matrix(1 0 0 0.999868 3068.36 663)">density</text><text font-family="NanumSquare_ac,NanumSquare_ac_MSFontService,sans-serif" font-weight="400" font-size="37" transform="matrix(1 0 0 0.999868 3209.31 663)">lipoprotein</text><text font-family="NanumSquare_ac,NanumSquare_ac_MSFontService,sans-serif" font-weight="400" font-size="37" transform="matrix(1 0 0 0.999868 3408.43 663)">cholesterol</text><text font-family="NanumSquare_ac,NanumSquare_ac_MSFontService,sans-serif" font-weight="400" font-size="37" transform="matrix(1 0 0 0.999868 3596.14 663)">;</text><text font-family="NanumSquare_ac,NanumSquare_ac_MSFontService,sans-serif" font-weight="400" font-size="37" transform="matrix(1 0 0 0.999868 3624.24 663)">Hb</text><text font-family="NanumSquare_ac,NanumSquare_ac_MSFontService,sans-serif" font-weight="400" font-size="37" transform="matrix(1 0 0 0.999868 3671.24 663)">:</text><text font-family="NanumSquare_ac,NanumSquare_ac_MSFontService,sans-serif" font-weight="400" font-size="37" transform="matrix(1 0 0 0.999868 97.2693 704)">hemoglobin</text><text font-family="NanumSquare_ac,NanumSquare_ac_MSFontService,sans-serif" font-weight="400" font-size="37" transform="matrix(1 0 0 0.999868 296.442 704)">;</text><text font-family="NanumSquare_ac,NanumSquare_ac_MSFontService,sans-serif" font-weight="400" font-size="37" transform="matrix(1 0 0 0.999868 317.112 704)">AST</text><text font-family="NanumSquare_ac,NanumSquare_ac_MSFontService,sans-serif" font-weight="400" font-size="37" transform="matrix(1 0 0 0.999868 385.621 704)">:</text><text font-family="NanumSquare_ac,NanumSquare_ac_MSFontService,sans-serif" font-weight="400" font-size="37" transform="matrix(1 0 0 0.999868 406.29 704)">aspartate</text><text font-family="NanumSquare_ac,NanumSquare_ac_MSFontService,sans-serif" font-weight="400" font-size="37" transform="matrix(1 0 0 0.999868 579.313 704)">aminotransferase</text><text font-family="NanumSquare_ac,NanumSquare_ac_MSFontService,sans-serif" font-weight="400" font-size="37" transform="matrix(1 0 0 0.999868 879.533 704)">;</text><text font-family="NanumSquare_ac,NanumSquare_ac_MSFontService,sans-serif" font-weight="400" font-size="37" transform="matrix(1 0 0 0.999868 900.202 704)">ALT</text><text font-family="NanumSquare_ac,NanumSquare_ac_MSFontService,sans-serif" font-weight="400" font-size="37" transform="matrix(1 0 0 0.999868 963.804 704)">:</text><text font-family="NanumSquare_ac,NanumSquare_ac_MSFontService,sans-serif" font-weight="400" font-size="37" transform="matrix(1 0 0 0.999868 984.473 704)">alanine</text><text font-family="NanumSquare_ac,NanumSquare_ac_MSFontService,sans-serif" font-weight="400" font-size="37" transform="matrix(1 0 0 0.999868 1114.32 704)">aminotransferase</text><text font-family="NanumSquare_ac,NanumSquare_ac_MSFontService,sans-serif" font-weight="400" font-size="37" transform="matrix(1 0 0 0.999868 1414.54 704)">;</text><text font-family="NanumSquare_ac,NanumSquare_ac_MSFontService,sans-serif" font-weight="400" font-size="37" transform="matrix(1 0 0 0.999868 1435.21 704)">γ</text><text font-family="NanumSquare_ac,NanumSquare_ac_MSFontService,sans-serif" font-weight="400" font-size="37" transform="matrix(1 0 0 0.999868 1454.05 704)">-</text><text font-family="NanumSquare_ac,NanumSquare_ac_MSFontService,sans-serif" font-weight="400" font-size="37" transform="matrix(1 0 0 0.999868 1469.38 704)">GTP</text><text font-family="NanumSquare_ac,NanumSquare_ac_MSFontService,sans-serif" font-weight="400" font-size="37" transform="matrix(1 0 0 0.999868 1537.56 704)">:</text><text font-family="NanumSquare_ac,NanumSquare_ac_MSFontService,sans-serif" font-weight="400" font-size="37" transform="matrix(1 0 0 0.999868 1558.23 704)">γ</text><text font-family="NanumSquare_ac,NanumSquare_ac_MSFontService,sans-serif" font-weight="400" font-size="37" transform="matrix(1 0 0 0.999868 1577.07 704)">-</text><text font-family="NanumSquare_ac,NanumSquare_ac_MSFontService,sans-serif" font-weight="400" font-size="37" transform="matrix(1 0 0 0.999868 1592.4 704)">glutamyl</text><text font-family="NanumSquare_ac,NanumSquare_ac_MSFontService,sans-serif" font-weight="400" font-size="37" transform="matrix(1 0 0 0.999868 1747.92 704)">transferase</text><text font-family="NanumSquare_ac,NanumSquare_ac_MSFontService,sans-serif" font-weight="400" font-size="37" transform="matrix(1 0 0 0.999868 1943.96 704)">.</text></g></svg>