<svg width="266" height="307" xmlns="http://www.w3.org/2000/svg" xmlns:xlink="http://www.w3.org/1999/xlink" xml:space="preserve" overflow="hidden"><defs><clipPath id="clip0"><rect x="0" y="0" width="266" height="307"/></clipPath></defs><g clip-path="url(#clip0)"><path d="M0 0 265.673 0 265.673 307.185 0 307.185Z" fill="#FFFFFF" transform="scale(1.00123 1)"/><text font-family="KoreanGD16R,KoreanGD16R_MSFontService,sans-serif" font-weight="400" font-size="20" transform="matrix(0.369444 0 0 0.369212 26.0821 26)">BP</text><path d="M63.8353 23.6296 241.334 23.6296" stroke="#262626" stroke-width="0.737981" stroke-miterlimit="8" fill="#262626" fill-rule="evenodd" transform="scale(1.00123 1)"/><path d="M59.7764 23.9988C59.7764 21.9597 61.4284 20.3067 63.4663 20.3067 65.5043 20.3067 67.1562 21.9597 67.1562 23.9988 67.1562 26.0379 65.5043 27.6909 63.4663 27.6909 61.4284 27.6909 59.7764 26.0379 59.7764 23.9988Z" stroke="#262626" stroke-width="0.737981" stroke-miterlimit="8" fill="#595959" fill-rule="evenodd" transform="scale(1.00123 1)"/><path d="M201.838 23.9988C201.838 21.9597 203.49 20.3067 205.528 20.3067 207.566 20.3067 209.218 21.9597 209.218 23.9988 209.218 26.0379 207.566 27.6909 205.528 27.6909 203.49 27.6909 201.838 26.0379 201.838 23.9988Z" stroke="#262626" stroke-width="0.737981" stroke-miterlimit="8" fill="#595959" fill-rule="evenodd" transform="scale(1.00123 1)"/><path d="M237.261 23.9988C237.261 21.9597 238.913 20.3067 240.951 20.3067 242.989 20.3067 244.641 21.9597 244.641 23.9988 244.641 26.0379 242.989 27.6909 240.951 27.6909 238.913 27.6909 237.261 26.0379 237.261 23.9988Z" stroke="#262626" stroke-width="0.737981" stroke-miterlimit="8" fill="#595959" fill-rule="evenodd" transform="scale(1.00123 1)"/><path d="M166.415 23.9988C166.415 21.9597 168.067 20.3067 170.105 20.3067 172.143 20.3067 173.794 21.9597 173.794 23.9988 173.794 26.0379 172.143 27.6909 170.105 27.6909 168.067 27.6909 166.415 26.0379 166.415 23.9988Z" stroke="#262626" stroke-width="0.737981" stroke-miterlimit="8" fill="#595959" fill-rule="evenodd" transform="scale(1.00123 1)"/><path d="M132.468 23.9988C132.468 21.9597 134.12 20.3067 136.157 20.3067 138.195 20.3067 139.847 21.9597 139.847 23.9988 139.847 26.0379 138.195 27.6909 136.157 27.6909 134.12 27.6909 132.468 26.0379 132.468 23.9988Z" stroke="#262626" stroke-width="0.737981" stroke-miterlimit="8" fill="#595959" fill-rule="evenodd" transform="scale(1.00123 1)"/><path d="M95.1995 23.9988C95.1995 21.9597 96.8515 20.3067 98.8894 20.3067 100.927 20.3067 102.579 21.9597 102.579 23.9988 102.579 26.0379 100.927 27.6909 98.8894 27.6909 96.8515 27.6909 95.1995 26.0379 95.1995 23.9988Z" stroke="#262626" stroke-width="0.737981" stroke-miterlimit="8" fill="#595959" fill-rule="evenodd" transform="scale(1.00123 1)"/><text font-family="KoreanGD12R,KoreanGD12R_MSFontService,sans-serif" font-weight="400" font-size="19" transform="matrix(0.369444 0 0 0.369212 57.3426 17)">정상</text><text font-family="KoreanGD12R,KoreanGD12R_MSFontService,sans-serif" font-weight="400" font-size="19" transform="matrix(0.369444 0 0 0.369212 196.517 9)">고혈압</text><text font-family="KoreanGD12R,KoreanGD12R_MSFontService,sans-serif" font-weight="400" font-size="19" transform="matrix(0.369444 0 0 0.369212 200.672 17)">2</text><text font-family="KoreanGD12R,KoreanGD12R_MSFontService,sans-serif" font-weight="400" font-size="19" transform="matrix(0.369444 0 0 0.369212 204.551 17)">기</text><text font-family="KoreanGD12R,KoreanGD12R_MSFontService,sans-serif" font-weight="400" font-size="19" transform="matrix(0.369444 0 0 0.369212 232.011 9)">고혈압</text><text font-family="KoreanGD12R,KoreanGD12R_MSFontService,sans-serif" font-weight="400" font-size="19" transform="matrix(0.369444 0 0 0.369212 224.9 17)">수축기</text><text font-family="KoreanGD12R,KoreanGD12R_MSFontService,sans-serif" font-weight="400" font-size="19" transform="matrix(0.369444 0 0 0.369212 245.219 17)">단독</text><text font-family="KoreanGD12R,KoreanGD12R_MSFontService,sans-serif" font-weight="400" font-size="19" transform="matrix(0.369444 0 0 0.369212 161.142 10)">고혈압</text><text font-family="KoreanGD12R,KoreanGD12R_MSFontService,sans-serif" font-weight="400" font-size="19" transform="matrix(0.369444 0 0 0.369212 165.298 18)">1</text><text font-family="KoreanGD12R,KoreanGD12R_MSFontService,sans-serif" font-weight="400" font-size="19" transform="matrix(0.369444 0 0 0.369212 169.177 18)">기</text><text font-family="KoreanGD12R,KoreanGD12R_MSFontService,sans-serif" font-weight="400" font-size="19" transform="matrix(0.369444 0 0 0.369212 127.297 10)">고혈압</text><text font-family="KoreanGD12R,KoreanGD12R_MSFontService,sans-serif" font-weight="400" font-size="19" transform="matrix(0.369444 0 0 0.369212 127.297 18)">전단계</text><text font-family="KoreanGD12R,KoreanGD12R_MSFontService,sans-serif" font-weight="400" font-size="19" transform="matrix(0.369444 0 0 0.369212 92.8381 17)">주의</text><text font-family="KoreanGD16R,KoreanGD16R_MSFontService,sans-serif" font-weight="400" font-size="20" transform="matrix(0.369444 0 0 0.369212 23.8963 51)">FBG</text><path d="M63.8353 48.3669 241.334 48.3669" stroke="#262626" stroke-width="0.737981" stroke-miterlimit="8" fill="none" fill-rule="evenodd" transform="scale(1.00123 1)"/><path d="M59.7764 48.7359C59.7764 46.6968 61.4284 45.0438 63.4663 45.0438 65.5043 45.0438 67.1562 46.6968 67.1562 48.7359 67.1562 50.7753 65.5043 52.428 63.4663 52.428 61.4284 52.428 59.7764 50.7753 59.7764 48.7359Z" stroke="#262626" stroke-width="0.737981" stroke-miterlimit="8" fill="#595959" fill-rule="evenodd" transform="scale(1.00123 1)"/><path d="M237.261 48.7359C237.261 46.6968 238.913 45.0438 240.951 45.0438 242.989 45.0438 244.641 46.6968 244.641 48.7359 244.641 50.7753 242.989 52.428 240.951 52.428 238.913 52.428 237.261 50.7753 237.261 48.7359Z" stroke="#262626" stroke-width="0.737981" stroke-miterlimit="8" fill="#595959" fill-rule="evenodd" transform="scale(1.00123 1)"/><path d="M148.334 48.7359C148.334 46.6968 150.069 45.0438 152.209 45.0438 154.348 45.0438 156.083 46.6968 156.083 48.7359 156.083 50.7753 154.348 52.428 152.209 52.428 150.069 52.428 148.334 50.7753 148.334 48.7359Z" stroke="#262626" stroke-width="0.737981" stroke-miterlimit="8" fill="#595959" fill-rule="evenodd" transform="scale(1.00123 1)"/><text font-family="KoreanGD12R,KoreanGD12R_MSFontService,sans-serif" font-weight="400" font-size="19" transform="matrix(0.369444 0 0 0.369212 57.3426 42)">정상</text><text font-family="KoreanGD12R,KoreanGD12R_MSFontService,sans-serif" font-weight="400" font-size="19" transform="matrix(0.369444 0 0 0.369212 232.012 42)">당뇨병</text><text font-family="KoreanGD12R,KoreanGD12R_MSFontService,sans-serif" font-weight="400" font-size="19" transform="matrix(0.369444 0 0 0.369212 134.09 42)">공복혈당장애</text><text font-family="KoreanGD16R,KoreanGD16R_MSFontService,sans-serif" font-weight="400" font-size="20" transform="matrix(0.369444 0 0 0.369212 24.3176 75)">T</text><text font-family="KoreanGD16R,KoreanGD16R_MSFontService,sans-serif" font-weight="400" font-size="20" transform="matrix(0.369444 0 0 0.369212 28.3396 75)">-</text><text font-family="KoreanGD16R,KoreanGD16R_MSFontService,sans-serif" font-weight="400" font-size="20" transform="matrix(0.369444 0 0 0.369212 32.1572 75)">C</text><path d="M63.8353 73.104 241.334 73.104" stroke="#262626" stroke-width="0.737981" stroke-miterlimit="8" fill="none" fill-rule="evenodd" transform="scale(1.00123 1)"/><path d="M59.7764 73.2885C59.7764 71.1476 61.4284 69.4119 63.4663 69.4119 65.5043 69.4119 67.1562 71.1476 67.1562 73.2885 67.1562 75.4298 65.5043 77.1655 63.4663 77.1655 61.4284 77.1655 59.7764 75.4298 59.7764 73.2885Z" stroke="#262626" stroke-width="0.737981" stroke-miterlimit="8" fill="#595959" fill-rule="evenodd" transform="scale(1.00123 1)"/><path d="M237.261 73.2885C237.261 71.1476 238.913 69.4119 240.951 69.4119 242.989 69.4119 244.641 71.1476 244.641 73.2885 244.641 75.4298 242.989 77.1655 240.951 77.1655 238.913 77.1655 237.261 75.4298 237.261 73.2885Z" stroke="#262626" stroke-width="0.737981" stroke-miterlimit="8" fill="#595959" fill-rule="evenodd" transform="scale(1.00123 1)"/><path d="M148.334 73.4734C148.334 71.434 150.069 69.7812 152.209 69.7812 154.348 69.7812 156.083 71.434 156.083 73.4734 156.083 75.5124 154.348 77.1655 152.209 77.1655 150.069 77.1655 148.334 75.5124 148.334 73.4734Z" stroke="#262626" stroke-width="0.737981" stroke-miterlimit="8" fill="#595959" fill-rule="evenodd" transform="scale(1.00123 1)"/><text font-family="KoreanGD12R,KoreanGD12R_MSFontService,sans-serif" font-weight="400" font-size="19" transform="matrix(0.369444 0 0 0.369212 57.3426 67)">정상</text><text font-family="KoreanGD12R,KoreanGD12R_MSFontService,sans-serif" font-weight="400" font-size="19" transform="matrix(0.369444 0 0 0.369212 235.06 67)">높음</text><text font-family="KoreanGD12R,KoreanGD12R_MSFontService,sans-serif" font-weight="400" font-size="19" transform="matrix(0.369444 0 0 0.369212 146.282 67)">경계</text><text font-family="KoreanGD16R,KoreanGD16R_MSFontService,sans-serif" font-weight="400" font-size="20" transform="matrix(0.369444 0 0 0.369212 26.082 100)">TG</text><path d="M63.8353 97.8411 241.334 97.8411" stroke="#262626" stroke-width="0.737981" stroke-miterlimit="8" fill="none" fill-rule="evenodd" transform="scale(1.00123 1)"/><path d="M59.7764 97.8411C59.7764 95.8021 61.4284 94.149 63.4663 94.149 65.5043 94.149 67.1562 95.8021 67.1562 97.8411 67.1562 99.8805 65.5043 101.533 63.4663 101.533 61.4284 101.533 59.7764 99.8805 59.7764 97.8411Z" stroke="#262626" stroke-width="0.737981" stroke-miterlimit="8" fill="#595959" fill-rule="evenodd" transform="scale(1.00123 1)"/><path d="M237.261 97.8411C237.261 95.8021 238.913 94.149 240.951 94.149 242.989 94.149 244.641 95.8021 244.641 97.8411 244.641 99.8805 242.989 101.533 240.951 101.533 238.913 101.533 237.261 99.8805 237.261 97.8411Z" stroke="#262626" stroke-width="0.737981" stroke-miterlimit="8" fill="#595959" fill-rule="evenodd" transform="scale(1.00123 1)"/><path d="M148.334 97.8411C148.334 95.8021 150.069 94.149 152.209 94.149 154.348 94.149 156.083 95.8021 156.083 97.8411 156.083 99.8805 154.348 101.533 152.209 101.533 150.069 101.533 148.334 99.8805 148.334 97.8411Z" stroke="#262626" stroke-width="0.737981" stroke-miterlimit="8" fill="#595959" fill-rule="evenodd" transform="scale(1.00123 1)"/><text font-family="KoreanGD12R,KoreanGD12R_MSFontService,sans-serif" font-weight="400" font-size="19" transform="matrix(0.369444 0 0 0.369212 57.3426 91)">정상</text><text font-family="KoreanGD12R,KoreanGD12R_MSFontService,sans-serif" font-weight="400" font-size="19" transform="matrix(0.369444 0 0 0.369212 235.06 91)">높음</text><text font-family="KoreanGD12R,KoreanGD12R_MSFontService,sans-serif" font-weight="400" font-size="19" transform="matrix(0.369444 0 0 0.369212 146.282 91)">경계</text><text font-family="KoreanGD16R,KoreanGD16R_MSFontService,sans-serif" font-weight="400" font-size="20" transform="matrix(0.369444 0 0 0.369212 19.7299 124)">HDL</text><text font-family="KoreanGD16R,KoreanGD16R_MSFontService,sans-serif" font-weight="400" font-size="20" transform="matrix(0.369444 0 0 0.369212 32.9264 124)">-</text><text font-family="KoreanGD16R,KoreanGD16R_MSFontService,sans-serif" font-weight="400" font-size="20" transform="matrix(0.369444 0 0 0.369212 36.744 124)">C</text><path d="M63.8353 121.102 241.334 121.102" stroke="#262626" stroke-width="0.737981" stroke-miterlimit="8" fill="none" fill-rule="evenodd" transform="scale(1.00123 1)"/><path d="M59.7764 121.471C59.7764 119.432 61.4284 117.779 63.4663 117.779 65.5043 117.779 67.1562 119.432 67.1562 121.471 67.1562 123.51 65.5043 125.163 63.4663 125.163 61.4284 125.163 59.7764 123.51 59.7764 121.471Z" stroke="#262626" stroke-width="0.737981" stroke-miterlimit="8" fill="#595959" fill-rule="evenodd" transform="scale(1.00123 1)"/><path d="M237.261 121.471C237.261 119.432 238.913 117.779 240.951 117.779 242.989 117.779 244.641 119.432 244.641 121.471 244.641 123.51 242.989 125.163 240.951 125.163 238.913 125.163 237.261 123.51 237.261 121.471Z" stroke="#262626" stroke-width="0.737981" stroke-miterlimit="8" fill="#595959" fill-rule="evenodd" transform="scale(1.00123 1)"/><path d="M116.601 121.471C116.601 119.432 118.253 117.779 120.291 117.779 122.329 117.779 123.981 119.432 123.981 121.471 123.981 123.51 122.329 125.163 120.291 125.163 118.253 125.163 116.601 123.51 116.601 121.471Z" stroke="#262626" stroke-width="0.737981" stroke-miterlimit="8" fill="#595959" fill-rule="evenodd" transform="scale(1.00123 1)"/><path d="M179.329 121.471C179.329 119.432 180.981 117.779 183.019 117.779 185.057 117.779 186.709 119.432 186.709 121.471 186.709 123.51 185.057 125.163 183.019 125.163 180.981 125.163 179.329 123.51 179.329 121.471Z" stroke="#262626" stroke-width="0.737981" stroke-miterlimit="8" fill="#595959" fill-rule="evenodd" transform="scale(1.00123 1)"/><text font-family="KoreanGD12R,KoreanGD12R_MSFontService,sans-serif" font-weight="400" font-size="19" transform="matrix(0.369444 0 0 0.369212 57.3429 114)">정상</text><text font-family="KoreanGD12R,KoreanGD12R_MSFontService,sans-serif" font-weight="400" font-size="19" transform="matrix(0.369444 0 0 0.369212 227.948 114)">매우</text><text font-family="KoreanGD12R,KoreanGD12R_MSFontService,sans-serif" font-weight="400" font-size="19" transform="matrix(0.369444 0 0 0.369212 242.172 114)">높음</text><text font-family="KoreanGD12R,KoreanGD12R_MSFontService,sans-serif" font-weight="400" font-size="19" transform="matrix(0.369444 0 0 0.369212 114.375 114)">낮음</text><text font-family="KoreanGD12R,KoreanGD12R_MSFontService,sans-serif" font-weight="400" font-size="19" transform="matrix(0.369444 0 0 0.369212 177.18 114)">높음</text><text font-family="KoreanGD16R,KoreanGD16R_MSFontService,sans-serif" font-weight="400" font-size="20" transform="matrix(0.369444 0 0 0.369212 20.0688 148)">LDL</text><text font-family="KoreanGD16R,KoreanGD16R_MSFontService,sans-serif" font-weight="400" font-size="20" transform="matrix(0.369444 0 0 0.369212 32.5881 148)">-</text><text font-family="KoreanGD16R,KoreanGD16R_MSFontService,sans-serif" font-weight="400" font-size="20" transform="matrix(0.369444 0 0 0.369212 36.4057 148)">C</text><path d="M63.8353 145.839 241.334 145.839" stroke="#262626" stroke-width="0.737981" stroke-miterlimit="8" fill="none" fill-rule="evenodd" transform="scale(1.00123 1)"/><path d="M59.7764 146.208C59.7764 144.169 61.4284 142.516 63.4663 142.516 65.5043 142.516 67.1562 144.169 67.1562 146.208 67.1562 148.247 65.5043 149.9 63.4663 149.9 61.4284 149.9 59.7764 148.247 59.7764 146.208Z" stroke="#262626" stroke-width="0.737981" stroke-miterlimit="8" fill="#595959" fill-rule="evenodd" transform="scale(1.00123 1)"/><path d="M237.261 146.208C237.261 144.169 238.913 142.516 240.951 142.516 242.989 142.516 244.641 144.169 244.641 146.208 244.641 148.247 242.989 149.9 240.951 149.9 238.913 149.9 237.261 148.247 237.261 146.208Z" stroke="#262626" stroke-width="0.737981" stroke-miterlimit="8" fill="#595959" fill-rule="evenodd" transform="scale(1.00123 1)"/><path d="M149.072 146.208C149.072 144.169 150.724 142.516 152.762 142.516 154.8 142.516 156.452 144.169 156.452 146.208 156.452 148.247 154.8 149.9 152.762 149.9 150.724 149.9 149.072 148.247 149.072 146.208Z" stroke="#262626" stroke-width="0.737981" stroke-miterlimit="8" fill="#595959" fill-rule="evenodd" transform="scale(1.00123 1)"/><path d="M103.686 146.393C103.686 144.252 105.421 142.516 107.561 142.516 109.7 142.516 111.435 144.252 111.435 146.393 111.435 148.534 109.7 150.269 107.561 150.269 105.421 150.269 103.686 148.534 103.686 146.393Z" stroke="#262626" stroke-width="0.737981" stroke-miterlimit="8" fill="#595959" fill-rule="evenodd" transform="scale(1.00123 1)"/><path d="M192.982 146.393C192.982 144.252 194.717 142.516 196.856 142.516 198.996 142.516 200.731 144.252 200.731 146.393 200.731 148.534 198.996 150.269 196.856 150.269 194.717 150.269 192.982 148.534 192.982 146.393Z" stroke="#262626" stroke-width="0.737981" stroke-miterlimit="8" fill="#595959" fill-rule="evenodd" transform="scale(1.00123 1)"/><text font-family="KoreanGD12R,KoreanGD12R_MSFontService,sans-serif" font-weight="400" font-size="19" transform="matrix(0.369444 0 0 0.369212 57.3426 139)">정상</text><text font-family="KoreanGD12R,KoreanGD12R_MSFontService,sans-serif" font-weight="400" font-size="19" transform="matrix(0.369444 0 0 0.369212 227.948 139)">매우</text><text font-family="KoreanGD12R,KoreanGD12R_MSFontService,sans-serif" font-weight="400" font-size="19" transform="matrix(0.369444 0 0 0.369212 242.172 139)">높음</text><text font-family="KoreanGD12R,KoreanGD12R_MSFontService,sans-serif" font-weight="400" font-size="19" transform="matrix(0.369444 0 0 0.369212 146.855 139)">경계</text><text font-family="KoreanGD12R,KoreanGD12R_MSFontService,sans-serif" font-weight="400" font-size="19" transform="matrix(0.369444 0 0 0.369212 94.4943 140)">정상</text><text font-family="KoreanGD12R,KoreanGD12R_MSFontService,sans-serif" font-weight="400" font-size="19" transform="matrix(0.369444 0 0 0.369212 108.718 140)">이상</text><text font-family="KoreanGD12R,KoreanGD12R_MSFontService,sans-serif" font-weight="400" font-size="19" transform="matrix(0.369444 0 0 0.369212 190.999 140)">높음</text><text font-family="KoreanGD16R,KoreanGD16R_MSFontService,sans-serif" font-weight="400" font-size="20" transform="matrix(0.369444 0 0 0.369212 26.1128 172)">Hb</text><path d="M63.8353 169.468 241.334 169.468" stroke="#262626" stroke-width="0.737981" stroke-miterlimit="8" fill="none" fill-rule="evenodd" transform="scale(1.00123 1)"/><path d="M59.7764 169.838C59.7764 167.798 61.4284 166.146 63.4663 166.146 65.5043 166.146 67.1562 167.798 67.1562 169.838 67.1562 171.877 65.5043 173.53 63.4663 173.53 61.4284 173.53 59.7764 171.877 59.7764 169.838Z" stroke="#262626" stroke-width="0.737981" stroke-miterlimit="8" fill="#595959" fill-rule="evenodd" transform="scale(1.00123 1)"/><path d="M237.261 169.838C237.261 167.798 238.913 166.146 240.951 166.146 242.989 166.146 244.641 167.798 244.641 169.838 244.641 171.877 242.989 173.53 240.951 173.53 238.913 173.53 237.261 171.877 237.261 169.838Z" stroke="#262626" stroke-width="0.737981" stroke-miterlimit="8" fill="#595959" fill-rule="evenodd" transform="scale(1.00123 1)"/><text font-family="KoreanGD12R,KoreanGD12R_MSFontService,sans-serif" font-weight="400" font-size="19" transform="matrix(0.369444 0 0 0.369212 57.3426 163)">정상</text><text font-family="KoreanGD12R,KoreanGD12R_MSFontService,sans-serif" font-weight="400" font-size="19" transform="matrix(0.369444 0 0 0.369212 235.06 163)">이상</text><text font-family="KoreanGD16R,KoreanGD16R_MSFontService,sans-serif" font-weight="400" font-size="20" transform="matrix(0.369444 0 0 0.369212 21.7115 195)">Urine</text><text font-family="KoreanGD16R,KoreanGD16R_MSFontService,sans-serif" font-weight="400" font-size="20" transform="matrix(0.369444 0 0 0.369212 18.6377 204)">Protein</text><path d="M63.8353 195.683 241.334 195.683" stroke="#262626" stroke-width="0.737981" stroke-miterlimit="8" fill="none" fill-rule="evenodd" transform="scale(1.00123 1)"/><path d="M59.7764 196.052C59.7764 194.013 61.4284 192.359 63.4663 192.359 65.5043 192.359 67.1562 194.013 67.1562 196.052 67.1562 198.091 65.5043 199.744 63.4663 199.744 61.4284 199.744 59.7764 198.091 59.7764 196.052Z" stroke="#262626" stroke-width="0.737981" stroke-miterlimit="8" fill="#595959" fill-rule="evenodd" transform="scale(1.00123 1)"/><path d="M237.261 196.052C237.261 194.013 238.913 192.359 240.951 192.359 242.989 192.359 244.641 194.013 244.641 196.052 244.641 198.091 242.989 199.744 240.951 199.744 238.913 199.744 237.261 198.091 237.261 196.052Z" stroke="#262626" stroke-width="0.737981" stroke-miterlimit="8" fill="#595959" fill-rule="evenodd" transform="scale(1.00123 1)"/><text font-family="KoreanGD12R,KoreanGD12R_MSFontService,sans-serif" font-weight="400" font-size="19" transform="matrix(0.369444 0 0 0.369212 57.3426 190)">정상</text><text font-family="KoreanGD12R,KoreanGD12R_MSFontService,sans-serif" font-weight="400" font-size="19" transform="matrix(0.369444 0 0 0.369212 235.06 190)">이상</text><text font-family="KoreanGD16R,KoreanGD16R_MSFontService,sans-serif" font-weight="400" font-size="20" transform="matrix(0.369444 0 0 0.369212 19.6783 220)">Serum</text><text font-family="KoreanGD16R,KoreanGD16R_MSFontService,sans-serif" font-weight="400" font-size="20" transform="matrix(0.369444 0 0 0.369212 13.3238 228)">Creatinine</text><text font-family="KoreanGD12R,KoreanGD12R_MSFontService,sans-serif" font-weight="400" font-size="19" transform="matrix(0.369444 0 0 0.369212 57.3426 214)">정상</text><text font-family="KoreanGD12R,KoreanGD12R_MSFontService,sans-serif" font-weight="400" font-size="19" transform="matrix(0.369444 0 0 0.369212 235.06 214)">이상</text><path d="M63.8353 220.05 241.334 220.051" stroke="#262626" stroke-width="0.737981" stroke-miterlimit="8" fill="#262626" fill-rule="evenodd" transform="scale(1.00123 1)"/><path d="M59.7764 220.235C59.7764 218.094 61.4284 216.358 63.4663 216.358 65.5043 216.358 67.1562 218.094 67.1562 220.235 67.1562 222.376 65.5043 224.112 63.4663 224.112 61.4284 224.112 59.7764 222.376 59.7764 220.235Z" stroke="#262626" stroke-width="0.737981" stroke-miterlimit="8" fill="#595959" fill-rule="evenodd" transform="scale(1.00123 1)"/><path d="M237.261 220.235C237.261 218.094 238.913 216.358 240.951 216.358 242.989 216.358 244.641 218.094 244.641 220.235 244.641 222.376 242.989 224.112 240.951 224.112 238.913 224.112 237.261 222.376 237.261 220.235Z" stroke="#262626" stroke-width="0.737981" stroke-miterlimit="8" fill="#595959" fill-rule="evenodd" transform="scale(1.00123 1)"/><text font-family="KoreanGD16R,KoreanGD16R_MSFontService,sans-serif" font-weight="400" font-size="20" transform="matrix(0.369444 0 0 0.369212 23.7235 247)">AST</text><text font-family="KoreanGD12R,KoreanGD12R_MSFontService,sans-serif" font-weight="400" font-size="19" transform="matrix(0.369444 0 0 0.369212 57.3426 238)">정상</text><text font-family="KoreanGD12R,KoreanGD12R_MSFontService,sans-serif" font-weight="400" font-size="19" transform="matrix(0.369444 0 0 0.369212 235.06 238)">높음</text><path d="M63.8353 244.788 241.334 244.788" stroke="#262626" stroke-width="0.737981" stroke-miterlimit="8" fill="none" fill-rule="evenodd" transform="scale(1.00123 1)"/><path d="M59.7764 244.788C59.7764 242.748 61.4284 241.096 63.4663 241.096 65.5043 241.096 67.1562 242.748 67.1562 244.788 67.1562 246.827 65.5043 248.48 63.4663 248.48 61.4284 248.48 59.7764 246.827 59.7764 244.788Z" stroke="#262626" stroke-width="0.737981" stroke-miterlimit="8" fill="#595959" fill-rule="evenodd" transform="scale(1.00123 1)"/><path d="M237.261 244.788C237.261 242.748 238.913 241.096 240.951 241.096 242.989 241.096 244.641 242.748 244.641 244.788 244.641 246.827 242.989 248.48 240.951 248.48 238.913 248.48 237.261 246.827 237.261 244.788Z" stroke="#262626" stroke-width="0.737981" stroke-miterlimit="8" fill="#595959" fill-rule="evenodd" transform="scale(1.00123 1)"/><text font-family="KoreanGD16R,KoreanGD16R_MSFontService,sans-serif" font-weight="400" font-size="20" transform="matrix(0.369444 0 0 0.369212 24.2961 272)">ALT</text><text font-family="KoreanGD12R,KoreanGD12R_MSFontService,sans-serif" font-weight="400" font-size="19" transform="matrix(0.369444 0 0 0.369212 57.3426 263)">정상</text><text font-family="KoreanGD12R,KoreanGD12R_MSFontService,sans-serif" font-weight="400" font-size="19" transform="matrix(0.369444 0 0 0.369212 235.06 263)">높음</text><path d="M63.8353 269.156 241.334 269.156" stroke="#262626" stroke-width="0.737981" stroke-miterlimit="8" fill="none" fill-rule="evenodd" transform="scale(1.00123 1)"/><path d="M59.7764 269.525C59.7764 267.486 61.4284 265.833 63.4663 265.833 65.5043 265.833 67.1562 267.486 67.1562 269.525 67.1562 271.564 65.5043 273.217 63.4663 273.217 61.4284 273.217 59.7764 271.564 59.7764 269.525Z" stroke="#262626" stroke-width="0.737981" stroke-miterlimit="8" fill="#595959" fill-rule="evenodd" transform="scale(1.00123 1)"/><path d="M237.261 269.525C237.261 267.486 238.913 265.833 240.951 265.833 242.989 265.833 244.641 267.486 244.641 269.525 244.641 271.564 242.989 273.217 240.951 273.217 238.913 273.217 237.261 271.564 237.261 269.525Z" stroke="#262626" stroke-width="0.737981" stroke-miterlimit="8" fill="#595959" fill-rule="evenodd" transform="scale(1.00123 1)"/><text font-family="KoreanGD16R,KoreanGD16R_MSFontService,sans-serif" font-weight="400" font-size="20" transform="matrix(0.369444 0 0 0.369212 20.2505 296)">γ</text><text font-family="KoreanGD16R,KoreanGD16R_MSFontService,sans-serif" font-weight="400" font-size="20" transform="matrix(0.369444 0 0 0.369212 23.514 296)">-</text><text font-family="KoreanGD16R,KoreanGD16R_MSFontService,sans-serif" font-weight="400" font-size="20" transform="matrix(0.369444 0 0 0.369212 27.3316 296)">GTP</text><path d="M63.8353 293.893 241.334 293.893" stroke="#262626" stroke-width="0.737981" stroke-miterlimit="8" fill="none" fill-rule="evenodd" transform="scale(1.00123 1)"/><path d="M59.7764 294.262C59.7764 292.223 61.4284 290.57 63.4663 290.57 65.5043 290.57 67.1562 292.223 67.1562 294.262 67.1562 296.301 65.5043 297.954 63.4663 297.954 61.4284 297.954 59.7764 296.301 59.7764 294.262Z" stroke="#262626" stroke-width="0.737981" stroke-miterlimit="8" fill="#595959" fill-rule="evenodd" transform="scale(1.00123 1)"/><path d="M237.261 294.262C237.261 292.223 238.913 290.57 240.951 290.57 242.989 290.57 244.641 292.223 244.641 294.262 244.641 296.301 242.989 297.954 240.951 297.954 238.913 297.954 237.261 296.301 237.261 294.262Z" stroke="#262626" stroke-width="0.737981" stroke-miterlimit="8" fill="#595959" fill-rule="evenodd" transform="scale(1.00123 1)"/><text font-family="KoreanGD12R,KoreanGD12R_MSFontService,sans-serif" font-weight="400" font-size="19" transform="matrix(0.369444 0 0 0.369212 57.3426 287)">정상</text><text font-family="KoreanGD12R,KoreanGD12R_MSFontService,sans-serif" font-weight="400" font-size="19" transform="matrix(0.369444 0 0 0.369212 235.06 287)">이상</text></g></svg>