<svg width="3780" height="720" xmlns="http://www.w3.org/2000/svg" xmlns:xlink="http://www.w3.org/1999/xlink" overflow="hidden"><g><rect x="0" y="0" width="3780" height="719.905" fill="#FFFFFF"/><path d="M87.6681 101.456 561.639 101.456 561.639 220.375 87.6681 220.375Z" fill="#D1D1D1" fill-rule="evenodd"/><path d="M561.639 101.456 771.899 101.456 771.899 220.375 561.639 220.375Z" fill="#D1D1D1" fill-rule="evenodd"/><path d="M771.899 101.456 982.16 101.456 982.16 220.375 771.899 220.375Z" fill="#D1D1D1" fill-rule="evenodd"/><path d="M982.16 101.456 1192.42 101.456 1192.42 220.375 982.16 220.375Z" fill="#D1D1D1" fill-rule="evenodd"/><path d="M1192.42 101.456 1402.68 101.456 1402.68 220.375 1192.42 220.375Z" fill="#D1D1D1" fill-rule="evenodd"/><path d="M1402.68 101.456 1612.94 101.456 1612.94 220.375 1402.68 220.375Z" fill="#D1D1D1" fill-rule="evenodd"/><path d="M1612.94 101.456 1823.2 101.456 1823.2 220.375 1612.94 220.375Z" fill="#D1D1D1" fill-rule="evenodd"/><path d="M1823.2 101.456 2033.46 101.456 2033.46 220.375 1823.2 220.375Z" fill="#D1D1D1" fill-rule="evenodd"/><path d="M2033.46 101.456 2243.72 101.456 2243.72 220.375 2033.46 220.375Z" fill="#D1D1D1" fill-rule="evenodd"/><path d="M2243.72 101.456 2624.04 101.456 2624.04 220.375 2243.72 220.375Z" fill="#D1D1D1" fill-rule="evenodd"/><path d="M2624.04 101.456 2921.37 101.456 2921.37 220.375 2624.04 220.375Z" fill="#D1D1D1" fill-rule="evenodd"/><path d="M2921.37 101.456 3097.05 101.456 3097.05 220.375 2921.37 220.375Z" fill="#D1D1D1" fill-rule="evenodd"/><path d="M3097.05 101.456 3281.88 101.456 3281.88 220.375 3097.05 220.375Z" fill="#D1D1D1" fill-rule="evenodd"/><path d="M3281.88 101.456 3464.3 101.456 3464.3 220.375 3281.88 220.375Z" fill="#D1D1D1" fill-rule="evenodd"/><path d="M3464.3 101.456 3692.33 101.456 3692.33 220.375 3464.3 220.375Z" fill="#D1D1D1" fill-rule="evenodd"/><path d="M87.6681 220.375 561.639 220.375 561.639 300.009 87.6681 300.009Z" fill="#F2F2F2" fill-rule="evenodd"/><path d="M87.6681 300.009 561.639 300.009 561.639 379.643 87.6681 379.643Z" fill="#F2F2F2" fill-rule="evenodd"/><path d="M87.6681 379.643 561.639 379.643 561.639 459.277 87.6681 459.277Z" fill="#F2F2F2" fill-rule="evenodd"/><path d="M87.6681 459.277 561.639 459.277 561.639 538.91 87.6681 538.91Z" fill="#F2F2F2" fill-rule="evenodd"/><path d="M87.6681 538.91 561.639 538.91 561.639 618.544 87.6681 618.544Z" fill="#F2F2F2" fill-rule="evenodd"/><path d="M561.639 100.789 561.639 619.211" stroke="#747474" stroke-width="1.33351" stroke-linejoin="round" stroke-miterlimit="10" fill="none" fill-rule="evenodd"/><path d="M771.899 100.789 771.899 619.211" stroke="#747474" stroke-width="1.33351" stroke-linejoin="round" stroke-miterlimit="10" fill="none" fill-rule="evenodd"/><path d="M982.16 100.789 982.16 619.211" stroke="#747474" stroke-width="1.33351" stroke-linejoin="round" stroke-miterlimit="10" fill="none" fill-rule="evenodd"/><path d="M1192.42 100.789 1192.42 619.211" stroke="#747474" stroke-width="1.33351" stroke-linejoin="round" stroke-miterlimit="10" fill="none" fill-rule="evenodd"/><path d="M1402.68 100.789 1402.68 619.211" stroke="#747474" stroke-width="1.33351" stroke-linejoin="round" stroke-miterlimit="10" fill="none" fill-rule="evenodd"/><path d="M1612.94 100.789 1612.94 619.211" stroke="#747474" stroke-width="1.33351" stroke-linejoin="round" stroke-miterlimit="10" fill="none" fill-rule="evenodd"/><path d="M1823.2 100.789 1823.2 619.211" stroke="#747474" stroke-width="1.33351" stroke-linejoin="round" stroke-miterlimit="10" fill="none" fill-rule="evenodd"/><path d="M2033.46 100.789 2033.46 619.211" stroke="#747474" stroke-width="1.33351" stroke-linejoin="round" stroke-miterlimit="10" fill="none" fill-rule="evenodd"/><path d="M2243.72 100.789 2243.72 619.211" stroke="#747474" stroke-width="1.33351" stroke-linejoin="round" stroke-miterlimit="10" fill="none" fill-rule="evenodd"/><path d="M2624.04 100.789 2624.04 619.211" stroke="#747474" stroke-width="1.33351" stroke-linejoin="round" stroke-miterlimit="10" fill="none" fill-rule="evenodd"/><path d="M2921.37 100.789 2921.37 619.211" stroke="#747474" stroke-width="1.33351" stroke-linejoin="round" stroke-miterlimit="10" fill="none" fill-rule="evenodd"/><path d="M3097.05 100.789 3097.05 619.211" stroke="#747474" stroke-width="1.33351" stroke-linejoin="round" stroke-miterlimit="10" fill="none" fill-rule="evenodd"/><path d="M3281.88 100.789 3281.88 619.211" stroke="#747474" stroke-width="1.33351" stroke-linejoin="round" stroke-miterlimit="10" fill="none" fill-rule="evenodd"/><path d="M3464.3 100.789 3464.3 619.211" stroke="#747474" stroke-width="1.33351" stroke-linejoin="round" stroke-miterlimit="10" fill="none" fill-rule="evenodd"/><path d="M87.0013 220.375 3693 220.375" stroke="#747474" stroke-width="1.33351" stroke-linejoin="round" stroke-miterlimit="10" fill="none" fill-rule="evenodd"/><path d="M87.0013 300.009 3693 300.009" stroke="#747474" stroke-width="1.33351" stroke-linejoin="round" stroke-miterlimit="10" fill="none" fill-rule="evenodd"/><path d="M87.0013 379.643 3693 379.643" stroke="#747474" stroke-width="1.33351" stroke-linejoin="round" stroke-miterlimit="10" fill="none" fill-rule="evenodd"/><path d="M87.0013 459.277 3693 459.277" stroke="#747474" stroke-width="1.33351" stroke-linejoin="round" stroke-miterlimit="10" fill="none" fill-rule="evenodd"/><path d="M87.0013 538.91 3693 538.91" stroke="#747474" stroke-width="1.33351" stroke-linejoin="round" stroke-miterlimit="10" fill="none" fill-rule="evenodd"/><path d="M87.6681 100.789 87.6681 619.211" stroke="#747474" stroke-width="1.33351" stroke-linejoin="round" stroke-miterlimit="10" fill="none" fill-rule="evenodd"/><path d="M3692.33 100.789 3692.33 619.211" stroke="#747474" stroke-width="1.33351" stroke-linejoin="round" stroke-miterlimit="10" fill="none" fill-rule="evenodd"/><path d="M87.0013 101.456 3693 101.456" stroke="#747474" stroke-width="1.33351" stroke-linejoin="round" stroke-miterlimit="10" fill="none" fill-rule="evenodd"/><path d="M87.0013 618.544 3693 618.544" stroke="#747474" stroke-width="1.33351" stroke-linejoin="round" stroke-miterlimit="10" fill="none" fill-rule="evenodd"/><g><text font-family="NanumSquare_ac ExtraBold,NanumSquare_ac ExtraBold_MSFontService,sans-serif" font-weight="800" font-size="48" transform="matrix(1 0 0 0.999868 3483.09 176)">Average</text></g><g><text font-family="NanumSquare_ac ExtraBold,NanumSquare_ac ExtraBold_MSFontService,sans-serif" font-weight="800" font-size="48" transform="matrix(1 0 0 0.999868 3304.58 176)">γ</text></g><text font-family="NanumSquare_ac ExtraBold,NanumSquare_ac ExtraBold_MSFontService,sans-serif" font-weight="800" font-size="48" transform="matrix(1 0 0 0.999868 3330.25 176)">-</text><g><text font-family="NanumSquare_ac ExtraBold,NanumSquare_ac ExtraBold_MSFontService,sans-serif" font-weight="800" font-size="48" transform="matrix(1 0 0 0.999868 3350.75 176)">GTP</text></g><text font-family="NanumSquare_ac ExtraBold,NanumSquare_ac ExtraBold_MSFontService,sans-serif" font-weight="800" font-size="48" transform="matrix(1 0 0 0.999868 3147.23 176)">ALT</text><text font-family="NanumSquare_ac ExtraBold,NanumSquare_ac ExtraBold_MSFontService,sans-serif" font-weight="800" font-size="48" transform="matrix(1 0 0 0.999868 2963.95 176)">AST</text><text font-family="NanumSquare_ac ExtraBold,NanumSquare_ac ExtraBold_MSFontService,sans-serif" font-weight="800" font-size="48" transform="matrix(1 0 0 0.999868 2696.11 147)">Serum</text><g><text font-family="NanumSquare_ac ExtraBold,NanumSquare_ac ExtraBold_MSFontService,sans-serif" font-weight="800" font-size="48" transform="matrix(1 0 0 0.999868 2651.27 205)">Creatinine</text></g><text font-family="NanumSquare_ac ExtraBold,NanumSquare_ac ExtraBold_MSFontService,sans-serif" font-weight="800" font-size="48" transform="matrix(1 0 0 0.999868 2279.06 176)">Urine Protein</text><text font-family="NanumSquare_ac ExtraBold,NanumSquare_ac ExtraBold_MSFontService,sans-serif" font-weight="800" font-size="48" transform="matrix(1 0 0 0.999868 2106.67 176)">Hb</text><text font-family="NanumSquare_ac ExtraBold,NanumSquare_ac ExtraBold_MSFontService,sans-serif" font-weight="800" font-size="48" transform="matrix(1 0 0 0.999868 1859.53 176)">LDL</text><text font-family="NanumSquare_ac ExtraBold,NanumSquare_ac ExtraBold_MSFontService,sans-serif" font-weight="800" font-size="48" transform="matrix(1 0 0 0.999868 1944.96 176)">-</text><text font-family="NanumSquare_ac ExtraBold,NanumSquare_ac ExtraBold_MSFontService,sans-serif" font-weight="800" font-size="48" transform="matrix(1 0 0 0.999868 1965.46 176)">C</text><text font-family="NanumSquare_ac ExtraBold,NanumSquare_ac ExtraBold_MSFontService,sans-serif" font-weight="800" font-size="48" transform="matrix(1 0 0 0.999868 1645.52 176)">HDL</text><text font-family="NanumSquare_ac ExtraBold,NanumSquare_ac ExtraBold_MSFontService,sans-serif" font-weight="800" font-size="48" transform="matrix(1 0 0 0.999868 1738.45 176)">-</text><text font-family="NanumSquare_ac ExtraBold,NanumSquare_ac ExtraBold_MSFontService,sans-serif" font-weight="800" font-size="48" transform="matrix(1 0 0 0.999868 1758.95 176)">C</text><text font-family="NanumSquare_ac ExtraBold,NanumSquare_ac ExtraBold_MSFontService,sans-serif" font-weight="800" font-size="48" transform="matrix(1 0 0 0.999868 1478.02 176)">TG</text><text font-family="NanumSquare_ac ExtraBold,NanumSquare_ac ExtraBold_MSFontService,sans-serif" font-weight="800" font-size="48" transform="matrix(1 0 0 0.999868 1257.79 176)">T</text><text font-family="NanumSquare_ac ExtraBold,NanumSquare_ac ExtraBold_MSFontService,sans-serif" font-weight="800" font-size="48" transform="matrix(1 0 0 0.999868 1285.13 176)">-</text><text font-family="NanumSquare_ac ExtraBold,NanumSquare_ac ExtraBold_MSFontService,sans-serif" font-weight="800" font-size="48" transform="matrix(1 0 0 0.999868 1305.63 176)">C</text><text font-family="NanumSquare_ac ExtraBold,NanumSquare_ac ExtraBold_MSFontService,sans-serif" font-weight="800" font-size="48" transform="matrix(1 0 0 0.999868 1041.03 176)">FBG</text><text font-family="NanumSquare_ac ExtraBold,NanumSquare_ac ExtraBold_MSFontService,sans-serif" font-weight="800" font-size="48" transform="matrix(1 0 0 0.999868 845.942 176)">BP</text><text font-family="NanumSquare_ac ExtraBold,NanumSquare_ac ExtraBold_MSFontService,sans-serif" font-weight="800" font-size="48" transform="matrix(1 0 0 0.999868 622.93 176)">BMI</text><text font-family="NanumSquare_ac ExtraBold,NanumSquare_ac ExtraBold_MSFontService,sans-serif" font-weight="800" font-size="48" transform="matrix(1 0 0 0.999868 198.804 176)">LLM model</text><text font-family="NanumSquare_ac ExtraBold,NanumSquare_ac ExtraBold_MSFontService,sans-serif" font-weight="800" font-size="48" transform="matrix(1 0 0 0.999868 3510.39 275)">0.824</text><text font-family="NanumSquare_ac,NanumSquare_ac_MSFontService,sans-serif" font-weight="400" font-size="48" transform="matrix(1 0 0 0.999868 3323.92 275)">0.86</text><text font-family="NanumSquare_ac,NanumSquare_ac_MSFontService,sans-serif" font-weight="400" font-size="48" transform="matrix(1 0 0 0.999868 3140.29 275)">0.93</text><text font-family="NanumSquare_ac,NanumSquare_ac_MSFontService,sans-serif" font-weight="400" font-size="48" transform="matrix(1 0 0 0.999868 2960.04 275)">0.97</text><text fill="#0070C0" font-family="NanumSquare_ac,NanumSquare_ac_MSFontService,sans-serif" font-weight="400" font-size="48" transform="matrix(1 0 0 0.999868 2723.53 275)">1.00</text><text fill="#0070C0" font-family="NanumSquare_ac,NanumSquare_ac_MSFontService,sans-serif" font-weight="400" font-size="48" transform="matrix(1 0 0 0.999868 2384.71 275)">1.00</text><text font-family="NanumSquare_ac,NanumSquare_ac_MSFontService,sans-serif" font-weight="400" font-size="48" transform="matrix(1 0 0 0.999868 2089.42 275)">0.82</text><text fill="#FF0000" font-family="NanumSquare_ac,NanumSquare_ac_MSFontService,sans-serif" font-weight="400" font-size="48" transform="matrix(1 0 0 0.999868 1879.16 275)">0.48</text><text font-family="NanumSquare_ac,NanumSquare_ac_MSFontService,sans-serif" font-weight="400" font-size="48" transform="matrix(1 0 0 0.999868 1668.9 275)">0.64</text><text font-family="NanumSquare_ac,NanumSquare_ac_MSFontService,sans-serif" font-weight="400" font-size="48" transform="matrix(1 0 0 0.999868 1458.64 275)">0.92</text><text font-family="NanumSquare_ac,NanumSquare_ac_MSFontService,sans-serif" font-weight="400" font-size="48" transform="matrix(1 0 0 0.999868 1248.38 275)">0.80</text><text font-family="NanumSquare_ac,NanumSquare_ac_MSFontService,sans-serif" font-weight="400" font-size="48" transform="matrix(1 0 0 0.999868 1038.12 275)">0.66</text><text font-family="NanumSquare_ac,NanumSquare_ac_MSFontService,sans-serif" font-weight="400" font-size="48" transform="matrix(1 0 0 0.999868 827.856 275)">0.67</text><text font-family="NanumSquare_ac,NanumSquare_ac_MSFontService,sans-serif" font-weight="400" font-size="48" transform="matrix(1 0 0 0.999868 617.596 275)">0.96</text><text font-family="NanumSquare_ac Bold,NanumSquare_ac Bold_MSFontService,sans-serif" font-weight="700" font-size="48" transform="matrix(1 0 0 0.999868 247.81 275)">gpt</text><text font-family="NanumSquare_ac Bold,NanumSquare_ac Bold_MSFontService,sans-serif" font-weight="700" font-size="48" transform="matrix(1 0 0 0.999868 323.82 275)">-</text><text font-family="NanumSquare_ac Bold,NanumSquare_ac Bold_MSFontService,sans-serif" font-weight="700" font-size="48" transform="matrix(1 0 0 0.999868 343.99 275)">4o</text><text font-family="NanumSquare_ac ExtraBold,NanumSquare_ac ExtraBold_MSFontService,sans-serif" font-weight="800" font-size="48" transform="matrix(1 0 0 0.999868 3510.39 355)">0.838</text><text font-family="NanumSquare_ac,NanumSquare_ac_MSFontService,sans-serif" font-weight="400" font-size="48" transform="matrix(1 0 0 0.999868 3323.92 355)">0.89</text><text font-family="NanumSquare_ac,NanumSquare_ac_MSFontService,sans-serif" font-weight="400" font-size="48" transform="matrix(1 0 0 0.999868 3140.29 355)">0.90</text><text fill="#0070C0" font-family="NanumSquare_ac,NanumSquare_ac_MSFontService,sans-serif" font-weight="400" font-size="48" transform="matrix(1 0 0 0.999868 2960.04 355)">1.00</text><text fill="#0070C0" font-family="NanumSquare_ac,NanumSquare_ac_MSFontService,sans-serif" font-weight="400" font-size="48" transform="matrix(1 0 0 0.999868 2723.53 355)">1.00</text><text fill="#0070C0" font-family="NanumSquare_ac,NanumSquare_ac_MSFontService,sans-serif" font-weight="400" font-size="48" transform="matrix(1 0 0 0.999868 2384.71 355)">1.00</text><text font-family="NanumSquare_ac,NanumSquare_ac_MSFontService,sans-serif" font-weight="400" font-size="48" transform="matrix(1 0 0 0.999868 2089.42 355)">0.85</text><text font-family="NanumSquare_ac,NanumSquare_ac_MSFontService,sans-serif" font-weight="400" font-size="48" transform="matrix(1 0 0 0.999868 1879.16 355)">0.59</text><text fill="#FF0000" font-family="NanumSquare_ac,NanumSquare_ac_MSFontService,sans-serif" font-weight="400" font-size="48" transform="matrix(1 0 0 0.999868 1668.9 355)">0.50</text><text font-family="NanumSquare_ac,NanumSquare_ac_MSFontService,sans-serif" font-weight="400" font-size="48" transform="matrix(1 0 0 0.999868 1458.64 355)">0.92</text><text font-family="NanumSquare_ac,NanumSquare_ac_MSFontService,sans-serif" font-weight="400" font-size="48" transform="matrix(1 0 0 0.999868 1248.38 355)">0.69</text><text font-family="NanumSquare_ac,NanumSquare_ac_MSFontService,sans-serif" font-weight="400" font-size="48" transform="matrix(1 0 0 0.999868 1038.12 355)">0.82</text><text font-family="NanumSquare_ac,NanumSquare_ac_MSFontService,sans-serif" font-weight="400" font-size="48" transform="matrix(1 0 0 0.999868 827.856 355)">0.74</text><text font-family="NanumSquare_ac,NanumSquare_ac_MSFontService,sans-serif" font-weight="400" font-size="48" transform="matrix(1 0 0 0.999868 617.596 355)">1.00</text><text font-family="NanumSquare_ac Bold,NanumSquare_ac Bold_MSFontService,sans-serif" font-weight="700" font-size="48" transform="matrix(1 0 0 0.999868 124.877 355)">claude</text><text font-family="NanumSquare_ac Bold,NanumSquare_ac Bold_MSFontService,sans-serif" font-weight="700" font-size="48" transform="matrix(1 0 0 0.999868 284.232 355)">3.5 sonnet</text><text font-family="NanumSquare_ac ExtraBold,NanumSquare_ac ExtraBold_MSFontService,sans-serif" font-weight="800" font-size="48" transform="matrix(1 0 0 0.999868 3510.39 435)">0.798</text><text font-family="NanumSquare_ac,NanumSquare_ac_MSFontService,sans-serif" font-weight="400" font-size="48" transform="matrix(1 0 0 0.999868 3323.92 435)">0.89</text><text font-family="NanumSquare_ac,NanumSquare_ac_MSFontService,sans-serif" font-weight="400" font-size="48" transform="matrix(1 0 0 0.999868 3140.29 435)">0.91</text><text font-family="NanumSquare_ac,NanumSquare_ac_MSFontService,sans-serif" font-weight="400" font-size="48" transform="matrix(1 0 0 0.999868 2960.04 435)">0.96</text><text fill="#0070C0" font-family="NanumSquare_ac,NanumSquare_ac_MSFontService,sans-serif" font-weight="400" font-size="48" transform="matrix(1 0 0 0.999868 2723.53 435)">1.00</text><text fill="#0070C0" font-family="NanumSquare_ac,NanumSquare_ac_MSFontService,sans-serif" font-weight="400" font-size="48" transform="matrix(1 0 0 0.999868 2384.71 435)">1.00</text><text font-family="NanumSquare_ac,NanumSquare_ac_MSFontService,sans-serif" font-weight="400" font-size="48" transform="matrix(1 0 0 0.999868 2089.42 435)">0.84</text><text font-family="NanumSquare_ac,NanumSquare_ac_MSFontService,sans-serif" font-weight="400" font-size="48" transform="matrix(1 0 0 0.999868 1879.16 435)">0.51</text><text font-family="NanumSquare_ac,NanumSquare_ac_MSFontService,sans-serif" font-weight="400" font-size="48" transform="matrix(1 0 0 0.999868 1668.9 435)">0.71</text><text font-family="NanumSquare_ac,NanumSquare_ac_MSFontService,sans-serif" font-weight="400" font-size="48" transform="matrix(1 0 0 0.999868 1458.64 435)">0.88</text><text fill="#FF0000" font-family="NanumSquare_ac,NanumSquare_ac_MSFontService,sans-serif" font-weight="400" font-size="48" transform="matrix(1 0 0 0.999868 1248.38 435)">0.47</text><text font-family="NanumSquare_ac,NanumSquare_ac_MSFontService,sans-serif" font-weight="400" font-size="48" transform="matrix(1 0 0 0.999868 1038.12 435)">0.70</text><text font-family="NanumSquare_ac,NanumSquare_ac_MSFontService,sans-serif" font-weight="400" font-size="48" transform="matrix(1 0 0 0.999868 827.856 435)">0.70</text><text font-family="NanumSquare_ac,NanumSquare_ac_MSFontService,sans-serif" font-weight="400" font-size="48" transform="matrix(1 0 0 0.999868 617.596 435)">0.81</text><text font-family="NanumSquare_ac Bold,NanumSquare_ac Bold_MSFontService,sans-serif" font-weight="700" font-size="48" transform="matrix(1 0 0 0.999868 161.539 435)">gemini</text><text font-family="NanumSquare_ac Bold,NanumSquare_ac Bold_MSFontService,sans-serif" font-weight="700" font-size="48" transform="matrix(1 0 0 0.999868 326.227 435)">1.5 pro</text><text font-family="NanumSquare_ac ExtraBold,NanumSquare_ac ExtraBold_MSFontService,sans-serif" font-weight="800" font-size="48" transform="matrix(1 0 0 0.999868 3510.39 514)">0.560</text><text font-family="NanumSquare_ac,NanumSquare_ac_MSFontService,sans-serif" font-weight="400" font-size="48" transform="matrix(1 0 0 0.999868 3323.92 514)">0.80</text><text font-family="NanumSquare_ac,NanumSquare_ac_MSFontService,sans-serif" font-weight="400" font-size="48" transform="matrix(1 0 0 0.999868 3140.29 514)">0.81</text><text font-family="NanumSquare_ac,NanumSquare_ac_MSFontService,sans-serif" font-weight="400" font-size="48" transform="matrix(1 0 0 0.999868 2960.04 514)">0.96</text><text fill="#0070C0" font-family="NanumSquare_ac,NanumSquare_ac_MSFontService,sans-serif" font-weight="400" font-size="48" transform="matrix(1 0 0 0.999868 2723.53 514)">0.98</text><text font-family="NanumSquare_ac,NanumSquare_ac_MSFontService,sans-serif" font-weight="400" font-size="48" transform="matrix(1 0 0 0.999868 2384.71 514)">0.90</text><text font-family="NanumSquare_ac,NanumSquare_ac_MSFontService,sans-serif" font-weight="400" font-size="48" transform="matrix(1 0 0 0.999868 2089.42 514)">0.81</text><text font-family="NanumSquare_ac,NanumSquare_ac_MSFontService,sans-serif" font-weight="400" font-size="48" transform="matrix(1 0 0 0.999868 1879.16 514)">0.21</text><text font-family="NanumSquare_ac,NanumSquare_ac_MSFontService,sans-serif" font-weight="400" font-size="48" transform="matrix(1 0 0 0.999868 1668.9 514)">0.39</text><text font-family="NanumSquare_ac,NanumSquare_ac_MSFontService,sans-serif" font-weight="400" font-size="48" transform="matrix(1 0 0 0.999868 1458.64 514)">0.26</text><text font-family="NanumSquare_ac,NanumSquare_ac_MSFontService,sans-serif" font-weight="400" font-size="48" transform="matrix(1 0 0 0.999868 1248.38 514)">0.37</text><text font-family="NanumSquare_ac,NanumSquare_ac_MSFontService,sans-serif" font-weight="400" font-size="48" transform="matrix(1 0 0 0.999868 1038.12 514)">0.25</text><text font-family="NanumSquare_ac,NanumSquare_ac_MSFontService,sans-serif" font-weight="400" font-size="48" transform="matrix(1 0 0 0.999868 827.856 514)">0.48</text><text fill="#FF0000" font-family="NanumSquare_ac,NanumSquare_ac_MSFontService,sans-serif" font-weight="400" font-size="48" transform="matrix(1 0 0 0.999868 617.596 514)">0.06</text><text font-family="NanumSquare_ac Bold,NanumSquare_ac Bold_MSFontService,sans-serif" font-weight="700" font-size="48" transform="matrix(1 0 0 0.999868 188.319 514)">EXAONE 3.0</text><text font-family="NanumSquare_ac ExtraBold,NanumSquare_ac ExtraBold_MSFontService,sans-serif" font-weight="800" font-size="48" transform="matrix(1 0 0 0.999868 3510.39 594)">0.628</text><text font-family="NanumSquare_ac,NanumSquare_ac_MSFontService,sans-serif" font-weight="400" font-size="48" transform="matrix(1 0 0 0.999868 3323.92 594)">0.68</text><text font-family="NanumSquare_ac,NanumSquare_ac_MSFontService,sans-serif" font-weight="400" font-size="48" transform="matrix(1 0 0 0.999868 3140.29 594)">0.75</text><text font-family="NanumSquare_ac,NanumSquare_ac_MSFontService,sans-serif" font-weight="400" font-size="48" transform="matrix(1 0 0 0.999868 2960.04 594)">0.88</text><text fill="#0070C0" font-family="NanumSquare_ac,NanumSquare_ac_MSFontService,sans-serif" font-weight="400" font-size="48" transform="matrix(1 0 0 0.999868 2723.53 594)">0.92</text><text font-family="NanumSquare_ac,NanumSquare_ac_MSFontService,sans-serif" font-weight="400" font-size="48" transform="matrix(1 0 0 0.999868 2384.71 594)">0.88</text><text font-family="NanumSquare_ac,NanumSquare_ac_MSFontService,sans-serif" font-weight="400" font-size="48" transform="matrix(1 0 0 0.999868 2089.42 594)">0.73</text><text font-family="NanumSquare_ac,NanumSquare_ac_MSFontService,sans-serif" font-weight="400" font-size="48" transform="matrix(1 0 0 0.999868 1879.16 594)">0.41</text><text font-family="NanumSquare_ac,NanumSquare_ac_MSFontService,sans-serif" font-weight="400" font-size="48" transform="matrix(1 0 0 0.999868 1668.9 594)">0.59</text><text font-family="NanumSquare_ac,NanumSquare_ac_MSFontService,sans-serif" font-weight="400" font-size="48" transform="matrix(1 0 0 0.999868 1458.64 594)">0.46</text><text font-family="NanumSquare_ac,NanumSquare_ac_MSFontService,sans-serif" font-weight="400" font-size="48" transform="matrix(1 0 0 0.999868 1248.38 594)">0.56</text><text font-family="NanumSquare_ac,NanumSquare_ac_MSFontService,sans-serif" font-weight="400" font-size="48" transform="matrix(1 0 0 0.999868 1038.12 594)">0.68</text><text font-family="NanumSquare_ac,NanumSquare_ac_MSFontService,sans-serif" font-weight="400" font-size="48" transform="matrix(1 0 0 0.999868 827.856 594)">0.57</text><text fill="#FF0000" font-family="NanumSquare_ac,NanumSquare_ac_MSFontService,sans-serif" font-weight="400" font-size="48" transform="matrix(1 0 0 0.999868 617.596 594)">0.05</text><text font-family="NanumSquare_ac Bold,NanumSquare_ac Bold_MSFontService,sans-serif" font-weight="700" font-size="48" transform="matrix(1 0 0 0.999868 221.973 594)">llama 3.1</text></g></svg>